<svg xmlns="http://www.w3.org/2000/svg" version="1.1" xmlns:xlink="http://www.w3.org/1999/xlink" width="1000" height="1000"><g clip-path="url(#SvgjsClipPath1083)"><rect width="1000" height="1000" fill="#2d71b0"></rect><g transform="matrix(0.87890625,0,0,0.87890625,50,50)"><svg xmlns="http://www.w3.org/2000/svg" version="1.1" xmlns:xlink="http://www.w3.org/1999/xlink" width="1024" height="1024"><svg xmlns="http://www.w3.org/2000/svg" xmlns:xlink="http://www.w3.org/1999/xlink" width="1024" zoomAndPan="magnify" viewBox="0 0 768 767.999994" height="1024" preserveAspectRatio="xMidYMid meet" version="1.0"><path fill="#ff751f" d="M 721.046875 311.089844 C 718.617188 307.167969 716.003906 303.371094 713.207031 299.703125 C 710.410156 296.035156 707.445312 292.511719 704.308594 289.128906 C 701.171875 285.746094 697.882812 282.523438 694.433594 279.457031 C 690.988281 276.390625 687.402344 273.5 683.675781 270.78125 C 679.949219 268.0625 676.101562 265.527344 672.128906 263.179688 C 668.160156 260.832031 664.085938 258.683594 659.90625 256.726562 C 655.730469 254.773438 651.46875 253.023438 647.121094 251.480469 C 642.773438 249.9375 638.363281 248.605469 633.890625 247.488281 C 629.429688 246.265625 624.90625 245.367188 620.316406 244.796875 L 613.585938 243.808594 L 606.5625 243.335938 C 597.320312 242.691406 588.113281 243.058594 578.949219 244.4375 C 569.78125 245.757812 560.832031 247.949219 552.09375 251.015625 C 543.355469 254.082031 534.996094 257.960938 527.011719 262.652344 L 516.222656 269.742188 C 512.589844 272.164062 509.917969 274.410156 506.824219 276.855469 L 488.449219 291.007812 L 451.613281 319.277344 L 378.117188 375.96875 L 304.738281 432.523438 L 268.058594 460.789062 C 255.941406 469.921875 243.199219 480.597656 232.164062 487.195312 C 225.652344 490.945312 218.84375 494.03125 211.730469 496.457031 C 204.621094 498.878906 197.34375 500.59375 189.898438 501.597656 C 182.445312 502.648438 174.964844 502.871094 167.464844 502.269531 C 165.578125 502.269531 163.695312 502.269531 161.855469 501.933594 L 156.269531 500.992188 L 150.726562 500.140625 L 145.296875 498.75 C 143.460938 498.304688 141.632812 497.816406 139.820312 497.285156 C 138.003906 496.753906 136.203125 496.175781 134.417969 495.554688 C 132.632812 494.933594 130.863281 494.273438 129.109375 493.566406 C 127.355469 492.859375 125.617188 492.109375 123.902344 491.316406 C 122.183594 490.527344 120.484375 489.695312 118.808594 488.820312 C 117.132812 487.945312 115.476562 487.03125 113.84375 486.074219 C 112.214844 485.121094 110.605469 484.128906 109.023438 483.09375 C 107.4375 482.058594 105.878906 480.988281 104.347656 479.878906 C 102.816406 478.769531 101.3125 477.625 99.839844 476.441406 C 98.363281 475.257812 96.917969 474.042969 95.5 472.789062 C 94.085938 471.535156 92.699219 470.246094 91.347656 468.925781 C 89.992188 467.605469 88.671875 466.253906 87.386719 464.867188 C 86.097656 463.484375 84.847656 462.066406 83.628906 460.621094 C 82.410156 459.175781 81.226562 457.699219 80.082031 456.195312 C 78.933594 454.691406 77.828125 453.160156 76.753906 451.601562 C 75.683594 450.042969 74.648438 448.460938 73.65625 446.851562 C 72.660156 445.242188 71.707031 443.613281 70.792969 441.957031 C 69.878906 440.300781 69.003906 438.625 68.171875 436.925781 C 67.339844 435.230469 66.546875 433.511719 65.796875 431.777344 C 65.050781 430.039062 64.34375 428.285156 63.679688 426.515625 C 63.015625 424.746094 62.394531 422.960938 61.820312 421.15625 C 61.242188 419.355469 60.710938 417.542969 60.222656 415.714844 C 59.734375 413.890625 59.292969 412.050781 58.894531 410.203125 C 58.496094 408.355469 58.140625 406.496094 57.835938 404.632812 C 57.527344 402.765625 57.265625 400.894531 57.046875 399.015625 C 56.832031 397.136719 56.660156 395.253906 56.539062 393.367188 C 56.414062 391.480469 56.335938 389.589844 56.300781 387.699219 C 56.269531 385.808594 56.285156 383.917969 56.34375 382.027344 C 56.402344 380.136719 56.507812 378.25 56.660156 376.367188 C 56.8125 374.480469 57.011719 372.601562 57.253906 370.726562 C 57.5 368.851562 57.789062 366.984375 58.125 365.121094 C 58.457031 363.261719 58.839844 361.410156 59.261719 359.566406 C 59.6875 357.722656 60.160156 355.890625 60.671875 354.074219 C 61.1875 352.253906 61.746094 350.445312 62.347656 348.65625 C 62.953125 346.863281 63.597656 345.085938 64.289062 343.324219 C 64.976562 341.5625 65.707031 339.820312 66.484375 338.097656 C 67.257812 336.371094 68.074219 334.664062 68.929688 332.980469 C 69.789062 331.292969 70.6875 329.632812 71.625 327.988281 C 72.566406 326.347656 73.542969 324.730469 74.5625 323.136719 C 75.578125 321.542969 76.632812 319.976562 77.726562 318.433594 C 78.824219 316.890625 79.953125 315.375 81.121094 313.890625 C 82.289062 312.402344 83.492188 310.945312 84.734375 309.515625 C 85.972656 308.085938 87.246094 306.691406 88.554688 305.324219 C 89.859375 303.957031 91.199219 302.625 92.574219 301.324219 C 93.945312 300.023438 95.347656 298.753906 96.78125 297.523438 C 98.21875 296.289062 99.679688 295.09375 101.171875 293.933594 C 102.664062 292.773438 104.1875 291.648438 105.734375 290.5625 C 107.28125 289.472656 108.855469 288.425781 110.453125 287.414062 C 112.050781 286.40625 113.671875 285.433594 115.320312 284.503906 C 116.964844 283.574219 118.632812 282.683594 120.324219 281.832031 C 122.011719 280.984375 123.722656 280.175781 125.449219 279.410156 C 127.179688 278.644531 128.925781 277.921875 130.691406 277.238281 C 132.453125 276.558594 134.234375 275.921875 136.027344 275.328125 C 137.824219 274.734375 139.632812 274.183594 141.453125 273.675781 C 143.277344 273.171875 145.109375 272.710938 146.953125 272.292969 C 148.800781 271.875 150.652344 271.503906 152.515625 271.179688 C 154.378906 270.855469 156.246094 270.574219 158.125 270.339844 C 160 270.105469 161.882812 269.914062 163.765625 269.773438 C 165.652344 269.628906 167.539062 269.53125 169.429688 269.480469 C 171.320312 269.429688 173.210938 269.425781 175.101562 269.464844 C 176.992188 269.507812 178.882812 269.59375 180.765625 269.730469 C 182.652344 269.863281 184.535156 270.042969 186.414062 270.265625 C 188.289062 270.492188 190.160156 270.761719 192.027344 271.078125 C 193.890625 271.394531 195.746094 271.757812 197.59375 272.164062 C 204.953125 273.667969 212.085938 275.890625 218.992188 278.835938 C 225.902344 281.785156 232.445312 285.390625 238.625 289.664062 L 243.289062 292.714844 L 248.25 296.550781 L 258.164062 304.179688 L 277.996094 319.457031 L 308.910156 343.304688 L 295.269531 361.25 C 295.269531 361.25 328.921875 343.144531 361.609375 366.972656 C 330.199219 341.394531 338.925781 304.15625 338.925781 304.15625 L 325.285156 322.101562 L 294.28125 297.988281 L 274.40625 282.664062 L 264.535156 275.015625 L 259.578125 271.179688 L 253.789062 267.320312 C 246.144531 262.078125 238.054688 257.65625 229.519531 254.050781 C 220.984375 250.441406 212.171875 247.722656 203.089844 245.894531 C 200.828125 245.429688 198.558594 245.019531 196.277344 244.664062 C 193.996094 244.308594 191.710938 244.011719 189.414062 243.765625 C 187.121094 243.523438 184.820312 243.332031 182.515625 243.199219 C 180.214844 243.066406 177.90625 242.988281 175.601562 242.96875 C 173.292969 242.945312 170.984375 242.980469 168.679688 243.070312 C 166.375 243.160156 164.070312 243.304688 161.773438 243.503906 C 159.472656 243.707031 157.179688 243.960938 154.894531 244.273438 C 152.609375 244.585938 150.328125 244.953125 148.0625 245.375 C 145.792969 245.796875 143.535156 246.273438 141.289062 246.804688 C 139.042969 247.335938 136.8125 247.917969 134.59375 248.558594 C 132.375 249.195312 130.175781 249.886719 127.992188 250.632812 C 125.808594 251.378906 123.644531 252.175781 121.496094 253.027344 C 119.351562 253.875 117.226562 254.777344 115.125 255.730469 C 113.023438 256.683594 110.945312 257.683594 108.894531 258.738281 C 106.839844 259.789062 104.8125 260.890625 102.8125 262.042969 C 100.8125 263.195312 98.839844 264.390625 96.898438 265.636719 C 94.957031 266.882812 93.042969 268.175781 91.164062 269.515625 C 89.285156 270.851562 87.4375 272.238281 85.625 273.664062 C 83.8125 275.09375 82.035156 276.5625 80.292969 278.078125 C 78.550781 279.589844 76.847656 281.144531 75.179688 282.742188 C 73.511719 284.335938 71.886719 285.972656 70.296875 287.648438 C 68.710938 289.320312 67.164062 291.035156 65.660156 292.78125 C 64.152344 294.53125 62.691406 296.316406 61.273438 298.136719 C 59.855469 299.957031 58.480469 301.808594 57.152344 303.695312 C 55.820312 305.582031 54.539062 307.5 53.300781 309.449219 C 52.066406 311.398438 50.875 313.375 49.734375 315.378906 C 48.59375 317.386719 47.503906 319.417969 46.460938 321.476562 C 45.417969 323.535156 44.425781 325.617188 43.484375 327.726562 C 42.539062 329.832031 41.648438 331.960938 40.8125 334.109375 C 39.972656 336.257812 39.183594 338.429688 38.449219 340.617188 C 37.714844 342.804688 37.035156 345.007812 36.40625 347.226562 C 35.777344 349.449219 35.207031 351.683594 34.683594 353.933594 C 34.164062 356.179688 33.699219 358.441406 33.289062 360.710938 C 32.878906 362.980469 32.523438 365.261719 32.222656 367.550781 C 31.921875 369.835938 31.675781 372.132812 31.488281 374.429688 C 31.296875 376.730469 31.164062 379.035156 31.085938 381.339844 C 31.007812 383.648438 30.984375 385.953125 31.019531 388.261719 C 31.050781 390.570312 31.140625 392.875 31.285156 395.175781 C 31.429688 397.480469 31.628906 399.777344 31.886719 402.074219 C 32.140625 404.367188 32.453125 406.652344 32.816406 408.929688 C 33.183594 411.207031 33.605469 413.476562 34.082031 415.734375 C 34.554688 417.992188 35.085938 420.238281 35.671875 422.472656 C 36.253906 424.703125 36.894531 426.921875 37.585938 429.121094 C 38.277344 431.324219 39.019531 433.507812 39.816406 435.671875 C 40.613281 437.839844 41.464844 439.984375 42.363281 442.109375 C 43.265625 444.234375 44.214844 446.335938 45.21875 448.414062 C 46.222656 450.492188 47.273438 452.546875 48.375 454.574219 C 49.476562 456.601562 50.625 458.601562 51.824219 460.574219 C 53.023438 462.546875 54.265625 464.488281 55.558594 466.402344 C 56.851562 468.3125 58.1875 470.191406 59.570312 472.039062 C 60.953125 473.886719 62.382812 475.699219 63.851562 477.480469 C 65.320312 479.257812 66.835938 481 68.390625 482.703125 C 69.945312 484.410156 71.539062 486.078125 73.175781 487.707031 C 74.808594 489.332031 76.484375 490.921875 78.195312 492.46875 C 79.90625 494.015625 81.65625 495.519531 83.441406 496.984375 C 85.226562 498.445312 87.042969 499.867188 88.898438 501.242188 C 90.75 502.617188 92.636719 503.945312 94.554688 505.230469 C 96.472656 506.511719 98.417969 507.75 100.398438 508.941406 C 102.375 510.128906 104.378906 511.269531 106.410156 512.363281 C 108.445312 513.457031 110.503906 514.5 112.585938 515.492188 C 114.667969 516.484375 116.773438 517.429688 118.902344 518.320312 C 121.03125 519.210938 123.179688 520.050781 125.347656 520.839844 C 127.519531 521.628906 129.703125 522.363281 131.910156 523.042969 C 134.113281 523.726562 136.332031 524.355469 138.570312 524.929688 L 145.296875 526.632812 L 152.027344 527.734375 L 158.757812 528.765625 C 161.003906 529.035156 163.246094 529.058594 165.667969 529.191406 C 174.898438 529.886719 184.09375 529.601562 193.261719 528.339844 C 202.429688 527.089844 211.390625 524.976562 220.144531 521.988281 C 228.902344 519.003906 237.289062 515.207031 245.308594 510.59375 C 260.722656 501.261719 271.511719 491.703125 284.121094 482.304688 L 321.070312 453.878906 L 394.652344 397.324219 L 468.035156 340.789062 L 504.578125 312.546875 L 522.929688 298.390625 C 525.9375 296.148438 529.144531 293.433594 532.015625 291.660156 L 540.585938 286.007812 C 547.0625 282.195312 553.847656 279.042969 560.941406 276.554688 C 568.035156 274.070312 575.300781 272.289062 582.738281 271.222656 C 590.183594 270.09375 597.664062 269.808594 605.171875 270.371094 L 610.78125 270.640625 L 616.347656 271.46875 C 620.078125 271.921875 623.75 272.671875 627.359375 273.714844 C 629.179688 274.164062 630.988281 274.660156 632.78125 275.203125 C 634.578125 275.742188 636.355469 276.324219 638.125 276.949219 C 639.890625 277.574219 641.640625 278.242188 643.375 278.953125 C 645.109375 279.664062 646.824219 280.417969 648.523438 281.210938 C 650.222656 282.003906 651.898438 282.839844 653.558594 283.714844 C 655.214844 284.585938 656.851562 285.5 658.464844 286.457031 C 660.078125 287.410156 661.667969 288.402344 663.234375 289.433594 C 664.796875 290.464844 666.335938 291.53125 667.851562 292.636719 C 669.367188 293.742188 670.851562 294.882812 672.308594 296.058594 C 673.769531 297.234375 675.199219 298.449219 676.597656 299.695312 C 678 300.941406 679.367188 302.21875 680.707031 303.53125 C 682.042969 304.84375 683.351562 306.1875 684.625 307.5625 C 685.894531 308.9375 687.136719 310.34375 688.339844 311.777344 C 689.546875 313.214844 690.714844 314.679688 691.851562 316.171875 C 692.984375 317.660156 694.082031 319.179688 695.144531 320.726562 C 696.203125 322.269531 697.226562 323.839844 698.214844 325.433594 C 699.199219 327.027344 700.144531 328.648438 701.050781 330.285156 C 701.957031 331.925781 702.824219 333.589844 703.652344 335.269531 C 704.476562 336.953125 705.261719 338.652344 706.007812 340.375 C 706.753906 342.09375 707.453125 343.832031 708.113281 345.585938 C 708.773438 347.339844 709.394531 349.109375 709.96875 350.890625 C 710.542969 352.675781 711.074219 354.472656 711.5625 356.28125 C 712.050781 358.09375 712.492188 359.914062 712.894531 361.742188 C 713.292969 363.574219 713.648438 365.414062 713.960938 367.261719 C 714.269531 369.113281 714.535156 370.964844 714.757812 372.828125 C 714.980469 374.6875 715.15625 376.554688 715.285156 378.425781 C 715.417969 380.292969 715.503906 382.164062 715.542969 384.039062 C 715.582031 385.914062 715.578125 387.785156 715.527344 389.660156 C 715.480469 391.535156 715.382812 393.40625 715.242188 395.273438 C 715.101562 397.144531 714.917969 399.007812 714.683594 400.867188 C 714.453125 402.726562 714.179688 404.582031 713.859375 406.429688 C 713.539062 408.273438 713.171875 410.113281 712.765625 411.941406 C 712.355469 413.769531 711.902344 415.589844 711.40625 417.394531 C 710.90625 419.203125 710.367188 420.996094 709.78125 422.777344 C 709.199219 424.558594 708.570312 426.324219 707.902344 428.074219 C 707.234375 429.828125 706.523438 431.558594 705.769531 433.277344 C 705.015625 434.992188 704.222656 436.691406 703.386719 438.367188 C 702.550781 440.046875 701.675781 441.703125 700.761719 443.335938 C 699.84375 444.972656 698.890625 446.585938 697.898438 448.175781 C 696.902344 449.765625 695.871094 451.328125 694.804688 452.867188 C 693.734375 454.40625 692.628906 455.921875 691.488281 457.40625 C 690.34375 458.894531 689.167969 460.351562 687.953125 461.78125 C 686.742188 463.207031 685.496094 464.609375 684.214844 465.976562 C 682.933594 467.34375 681.621094 468.683594 680.277344 469.988281 C 678.933594 471.292969 677.554688 472.566406 676.148438 473.804688 C 674.742188 475.042969 673.308594 476.246094 671.84375 477.417969 C 670.378906 478.585938 668.886719 479.71875 667.367188 480.816406 C 665.847656 481.914062 664.300781 482.972656 662.730469 483.996094 C 661.160156 485.019531 659.566406 486.003906 657.949219 486.949219 C 656.328125 487.894531 654.6875 488.800781 653.027344 489.667969 C 651.363281 490.53125 649.683594 491.359375 647.980469 492.140625 C 646.277344 492.925781 644.558594 493.671875 642.820312 494.371094 C 641.082031 495.074219 639.328125 495.734375 637.558594 496.351562 C 635.789062 496.964844 634.003906 497.539062 632.207031 498.070312 C 630.410156 498.601562 628.601562 499.089844 626.777344 499.53125 C 624.957031 499.972656 623.128906 500.371094 621.285156 500.726562 C 619.445312 501.082031 617.597656 501.390625 615.742188 501.65625 C 613.886719 501.921875 612.027344 502.140625 610.160156 502.316406 C 608.292969 502.492188 606.425781 502.621094 604.554688 502.707031 C 602.679688 502.792969 600.808594 502.832031 598.933594 502.824219 C 597.058594 502.820312 595.1875 502.769531 593.3125 502.671875 C 591.441406 502.574219 589.574219 502.433594 587.707031 502.246094 C 585.84375 502.058594 583.984375 501.828125 582.128906 501.550781 C 580.277344 501.277344 578.429688 500.953125 576.59375 500.589844 C 569.226562 499.148438 562.082031 496.988281 555.152344 494.101562 C 548.226562 491.214844 541.65625 487.664062 535.449219 483.449219 L 530.804688 480.421875 L 525.847656 476.628906 L 515.929688 468.980469 L 496.078125 453.679688 L 464.199219 428.910156 L 477.839844 410.964844 C 477.839844 410.964844 444.1875 429.089844 411.5 405.265625 C 442.910156 430.820312 434.179688 468.082031 434.179688 468.082031 L 447.820312 450.132812 L 479.8125 474.8125 L 499.710938 490.132812 L 509.671875 497.804688 L 514.675781 501.644531 L 520.507812 505.5 C 528.183594 510.707031 536.304688 515.089844 544.867188 518.65625 C 553.429688 522.222656 562.261719 524.898438 571.367188 526.679688 C 574.761719 527.355469 578.179688 527.90625 581.617188 528.332031 C 585.054688 528.761719 588.5 529.0625 591.960938 529.238281 C 595.417969 529.417969 598.878906 529.46875 602.34375 529.394531 C 605.804688 529.320312 609.261719 529.121094 612.707031 528.796875 C 616.15625 528.472656 619.589844 528.019531 623.003906 527.449219 C 626.421875 526.875 629.808594 526.175781 633.175781 525.355469 C 636.539062 524.539062 639.871094 523.597656 643.167969 522.535156 C 646.464844 521.472656 649.71875 520.292969 652.929688 518.996094 C 656.140625 517.699219 659.300781 516.289062 662.410156 514.761719 C 665.519531 513.234375 668.566406 511.597656 671.558594 509.847656 C 674.546875 508.101562 677.46875 506.246094 680.324219 504.285156 C 683.179688 502.324219 685.960938 500.265625 688.667969 498.101562 C 691.371094 495.941406 693.996094 493.683594 696.539062 491.332031 C 699.082031 488.980469 701.535156 486.539062 703.898438 484.007812 C 706.265625 481.476562 708.535156 478.863281 710.710938 476.167969 C 712.886719 473.472656 714.960938 470.703125 716.933594 467.859375 C 718.910156 465.011719 720.777344 462.097656 722.539062 459.117188 C 724.300781 456.136719 725.957031 453.09375 727.496094 449.992188 C 729.039062 446.894531 730.46875 443.738281 731.78125 440.535156 C 733.09375 437.332031 734.289062 434.082031 735.367188 430.792969 C 736.445312 427.5 737.402344 424.171875 738.238281 420.8125 C 739.074219 417.453125 739.789062 414.066406 740.378906 410.652344 C 740.96875 407.238281 741.4375 403.808594 741.777344 400.363281 C 742.121094 396.917969 742.335938 393.460938 742.429688 390 C 742.519531 386.539062 742.484375 383.078125 742.324219 379.617188 C 742.164062 376.15625 741.878906 372.707031 741.46875 369.269531 C 741.058594 365.828125 740.523438 362.410156 739.867188 359.011719 C 739.207031 355.609375 738.429688 352.238281 737.523438 348.894531 C 736.621094 345.550781 735.597656 342.242188 734.457031 338.976562 C 733.3125 335.707031 732.054688 332.480469 730.675781 329.304688 C 729.300781 326.125 727.808594 323 726.207031 319.933594 C 724.601562 316.863281 722.890625 313.855469 721.066406 310.910156 Z M 721.046875 311.089844 " fill-opacity="1" fill-rule="nonzero"></path></svg></svg></g></g><defs><clipPath id="SvgjsClipPath1083"><rect width="1000" height="1000" x="0" y="0" rx="500" ry="500"></rect></clipPath></defs></svg>