<svg xmlns="http://www.w3.org/2000/svg" xmlns:xlink="http://www.w3.org/1999/xlink" width="5000" zoomAndPan="magnify" viewBox="0 0 3750 749.999995" height="1000" preserveAspectRatio="xMidYMid meet" version="1.0"><defs><g/><clipPath id="4c9a048c32"><path d="M 755 96 L 774.484375 96 L 774.484375 651 L 755 651 Z M 755 96 " clip-rule="nonzero"/></clipPath><clipPath id="3d5411b8fe"><path d="M 98.5625 96 L 118 96 L 118 651 L 98.5625 651 Z M 98.5625 96 " clip-rule="nonzero"/></clipPath><clipPath id="358e27a54f"><path d="M 159 35.417969 L 714 35.417969 L 714 55 L 159 55 Z M 159 35.417969 " clip-rule="nonzero"/></clipPath><clipPath id="69b2e899a0"><path d="M 159 692 L 714 692 L 714 711.339844 L 159 711.339844 Z M 159 692 " clip-rule="nonzero"/></clipPath><clipPath id="d66d7aebae"><path d="M 713 35.417969 L 774.484375 35.417969 L 774.484375 97 L 713 97 Z M 713 35.417969 " clip-rule="nonzero"/></clipPath><clipPath id="f059fbafe9"><path d="M 98.5625 35.417969 L 160 35.417969 L 160 97 L 98.5625 97 Z M 98.5625 35.417969 " clip-rule="nonzero"/></clipPath><clipPath id="1ca65666a8"><path d="M 713 650 L 774.484375 650 L 774.484375 711.339844 L 713 711.339844 Z M 713 650 " clip-rule="nonzero"/></clipPath><clipPath id="fdc734b211"><path d="M 98.5625 650 L 160 650 L 160 711.339844 L 98.5625 711.339844 Z M 98.5625 650 " clip-rule="nonzero"/></clipPath><clipPath id="6d3cef2997"><path d="M 97.515625 34.371094 L 775.519531 34.371094 L 775.519531 712.375 L 97.515625 712.375 Z M 97.515625 34.371094 " clip-rule="nonzero"/></clipPath><clipPath id="0f795cdd88"><path d="M 446 306 L 693 306 L 693 499.761719 L 446 499.761719 Z M 446 306 " clip-rule="nonzero"/></clipPath><clipPath id="498b40dc49"><path d="M 179 246.898438 L 427 246.898438 L 427 440 L 179 440 Z M 179 246.898438 " clip-rule="nonzero"/></clipPath><clipPath id="62dd4219f5"><path d="M 169 246.898438 L 704 246.898438 L 704 499.761719 L 169 499.761719 Z M 169 246.898438 " clip-rule="nonzero"/></clipPath><clipPath id="4496f22509"><path d="M 951 191 L 2519.320312 191 L 2519.320312 750 L 951 750 Z M 951 191 " clip-rule="nonzero"/></clipPath><clipPath id="8c3f348f3e"><rect x="0" width="1569" y="0" height="559"/></clipPath><clipPath id="fef880762a"><rect x="0" width="2520" y="0" height="750"/></clipPath></defs><g transform="matrix(1, 0, 0, 1, 323, -0.000000000000042435)"><g clip-path="url(#fef880762a)"><g clip-path="url(#4c9a048c32)"><path fill="#2d71b0" d="M 755.257812 96.496094 L 775.519531 96.496094 L 775.519531 650.246094 L 755.257812 650.246094 Z M 755.257812 96.496094 " fill-opacity="1" fill-rule="nonzero"/></g><g clip-path="url(#3d5411b8fe)"><path fill="#2d71b0" d="M 97.515625 96.496094 L 117.773438 96.496094 L 117.773438 650.246094 L 97.515625 650.246094 Z M 97.515625 96.496094 " fill-opacity="1" fill-rule="nonzero"/></g><g clip-path="url(#358e27a54f)"><path fill="#2d71b0" d="M 159.644531 34.371094 L 713.390625 34.371094 L 713.390625 54.628906 L 159.644531 54.628906 Z M 159.644531 34.371094 " fill-opacity="1" fill-rule="nonzero"/></g><g clip-path="url(#69b2e899a0)"><path fill="#2d71b0" d="M 159.644531 692.113281 L 713.390625 692.113281 L 713.390625 712.375 L 159.644531 712.375 Z M 159.644531 692.113281 " fill-opacity="1" fill-rule="nonzero"/></g><g clip-path="url(#d66d7aebae)"><path fill="#2d71b0" d="M 755.257812 54.628906 L 755.257812 96.496094 L 775.519531 96.496094 L 775.519531 34.371094 L 713.390625 34.371094 L 713.390625 54.628906 Z M 755.257812 54.628906 " fill-opacity="1" fill-rule="nonzero"/></g><g clip-path="url(#f059fbafe9)"><path fill="#2d71b0" d="M 117.773438 54.628906 L 159.644531 54.628906 L 159.644531 34.371094 L 97.515625 34.371094 L 97.515625 96.496094 L 117.773438 96.496094 Z M 117.773438 54.628906 " fill-opacity="1" fill-rule="nonzero"/></g><g clip-path="url(#1ca65666a8)"><path fill="#2d71b0" d="M 755.257812 692.113281 L 713.390625 692.113281 L 713.390625 712.375 L 775.519531 712.375 L 775.519531 650.246094 L 755.257812 650.246094 Z M 755.257812 692.113281 " fill-opacity="1" fill-rule="nonzero"/></g><g clip-path="url(#fdc734b211)"><path fill="#2d71b0" d="M 117.773438 692.113281 L 117.773438 650.246094 L 97.515625 650.246094 L 97.515625 712.375 L 159.644531 712.375 L 159.644531 692.113281 Z M 117.773438 692.113281 " fill-opacity="1" fill-rule="nonzero"/></g><g clip-path="url(#6d3cef2997)"><path stroke-linecap="butt" transform="matrix(0.871942, 0, 0, 0.871942, 97.515443, 34.370002)" fill="none" stroke-linejoin="miter" d="M 0.00020855 0.00125163 L 0.00020855 777.580225 L 777.579182 777.580225 L 777.579182 0.00125163 L 0.00020855 0.00125163 " stroke="#2d71b0" stroke-width="55.049515" stroke-opacity="1" stroke-miterlimit="4"/></g><g clip-path="url(#0f795cdd88)"><path fill="#ff751f" d="M 628.777344 424.925781 C 615.082031 438.621094 596.824219 446.140625 577.21875 446.140625 C 557.886719 446.140625 539.628906 438.621094 525.664062 424.925781 L 484.3125 383.574219 L 446.453125 421.4375 L 487.804688 462.789062 C 511.703125 486.6875 543.386719 499.84375 577.21875 499.84375 C 596.285156 499.84375 614.542969 495.816406 631.460938 487.492188 C 640.324219 483.195312 648.648438 478.09375 656.164062 471.917969 C 657.238281 470.84375 661 467.621094 665.292969 463.324219 C 683.015625 445.871094 692.683594 422.777344 692.683594 398.074219 C 692.683594 394.851562 692.414062 391.898438 692.148438 388.945312 C 692.148438 388.675781 692.148438 388.140625 691.878906 387.871094 C 691.609375 385.1875 691.074219 382.5 690.804688 380.085938 C 690.804688 379.546875 690.535156 379.011719 690.535156 378.472656 C 690 376.058594 689.460938 373.640625 688.65625 371.222656 C 688.386719 370.6875 688.386719 370.148438 688.117188 369.613281 C 687.3125 367.464844 686.507812 365.046875 685.703125 362.898438 C 685.433594 362.363281 685.164062 361.824219 684.898438 361.289062 C 683.824219 359.140625 683.015625 356.992188 681.941406 354.84375 C 681.675781 354.308594 681.40625 353.769531 681.136719 353.234375 C 680.0625 351.085938 678.722656 349.203125 677.378906 347.058594 C 677.109375 346.519531 676.839844 346.25 676.304688 345.714844 C 674.960938 343.835938 673.617188 341.953125 672.007812 340.074219 C 671.738281 339.539062 671.203125 339.269531 670.933594 338.734375 C 669.324219 336.851562 667.710938 335.242188 666.101562 333.363281 C 665.832031 333.09375 665.292969 332.558594 665.027344 332.289062 C 663.414062 330.675781 661.535156 329.066406 659.65625 327.453125 C 659.117188 327.1875 658.851562 326.648438 658.3125 326.378906 C 656.433594 324.769531 654.554688 323.425781 652.675781 322.085938 C 652.136719 321.816406 651.867188 321.546875 651.332031 321.277344 C 649.453125 319.9375 647.304688 318.59375 645.15625 317.519531 C 644.617188 317.25 644.082031 316.984375 643.8125 316.714844 C 641.664062 315.640625 639.515625 314.566406 637.367188 313.492188 C 636.832031 313.222656 636.292969 312.953125 635.757812 312.953125 C 633.609375 312.148438 631.191406 311.34375 629.042969 310.539062 C 628.507812 310.269531 627.96875 310.269531 627.433594 310 C 625.015625 309.195312 622.867188 308.660156 620.453125 308.121094 C 619.914062 308.121094 619.378906 307.851562 618.574219 307.851562 C 616.15625 307.316406 613.738281 307.046875 611.324219 306.777344 C 610.785156 306.777344 609.980469 306.511719 609.441406 306.511719 C 608.367188 306.511719 607.5625 306.511719 606.488281 306.242188 C 614.542969 309.734375 622.0625 314.835938 628.507812 321.277344 C 656.972656 350.277344 656.972656 396.464844 628.777344 424.925781 Z M 628.777344 424.925781 " fill-opacity="1" fill-rule="nonzero"/></g><g clip-path="url(#498b40dc49)"><path fill="#ff751f" d="M 243.988281 321.816406 C 257.683594 308.121094 275.941406 300.601562 295.542969 300.601562 C 314.878906 300.601562 333.136719 308.121094 347.101562 321.816406 L 388.453125 363.167969 L 426.3125 325.308594 L 384.960938 283.953125 C 361.0625 260.054688 329.378906 246.898438 295.542969 246.898438 C 276.480469 246.898438 258.21875 250.925781 241.035156 259.25 C 232.171875 263.546875 223.847656 268.648438 216.332031 274.824219 C 215.257812 275.898438 211.496094 279.121094 207.203125 283.417969 C 189.480469 300.871094 179.8125 323.964844 179.8125 348.667969 C 179.8125 351.890625 180.082031 354.84375 180.347656 357.796875 C 180.347656 358.871094 180.617188 359.945312 180.886719 360.75 C 181.15625 362.632812 181.421875 364.777344 181.691406 366.660156 C 181.960938 367.734375 182.230469 369.074219 182.496094 370.148438 C 183.035156 371.761719 183.304688 373.640625 183.839844 375.25 C 184.109375 376.59375 184.644531 377.667969 185.183594 378.742188 C 185.71875 380.351562 186.257812 381.964844 186.792969 383.308594 C 187.332031 384.382812 187.867188 385.722656 188.40625 386.796875 C 189.210938 388.140625 189.746094 389.75 190.554688 391.09375 C 191.089844 392.167969 191.894531 393.242188 192.433594 394.585938 C 193.238281 395.925781 194.042969 397.269531 194.847656 398.613281 C 195.65625 399.6875 196.460938 400.761719 197.265625 401.835938 C 198.070312 403.175781 199.144531 404.25 199.953125 405.59375 C 200.757812 406.667969 201.5625 407.742188 202.636719 408.546875 C 203.710938 409.621094 204.785156 410.964844 205.859375 412.039062 C 206.664062 413.113281 207.738281 413.917969 208.8125 414.722656 C 209.886719 415.796875 210.960938 416.871094 212.304688 417.945312 C 213.378906 418.75 214.453125 419.558594 215.527344 420.363281 C 216.597656 421.167969 217.941406 422.242188 219.285156 423.046875 C 220.359375 423.851562 221.433594 424.660156 222.777344 425.195312 C 224.117188 426 225.460938 426.808594 226.804688 427.613281 C 227.878906 428.417969 229.21875 428.957031 230.5625 429.492188 C 231.90625 430.296875 233.246094 430.835938 234.589844 431.371094 C 235.933594 431.910156 237.007812 432.445312 238.347656 432.984375 C 239.691406 433.519531 241.304688 434.058594 242.644531 434.59375 C 243.988281 435.132812 245.332031 435.398438 246.671875 435.9375 C 248.285156 436.472656 249.628906 436.742188 251.238281 437.011719 C 252.582031 437.277344 253.921875 437.546875 255.535156 437.816406 C 257.144531 438.085938 258.757812 438.351562 260.097656 438.621094 C 261.441406 438.890625 263.054688 438.890625 264.394531 439.160156 C 264.933594 439.160156 265.738281 439.160156 266.277344 439.160156 C 258.21875 435.667969 250.703125 430.566406 244.257812 424.121094 C 215.527344 396.464844 215.527344 350.277344 243.988281 321.816406 Z M 243.988281 321.816406 " fill-opacity="1" fill-rule="nonzero"/></g><g clip-path="url(#62dd4219f5)"><path fill="#ff751f" d="M 316.21875 444.527344 C 315.144531 445.066406 313.804688 445.601562 312.730469 446.140625 C 311.65625 446.675781 310.582031 446.945312 309.777344 447.214844 C 308.703125 447.75 307.359375 448.289062 306.285156 448.558594 C 305.210938 448.824219 304.136719 449.363281 303.0625 449.632812 C 301.988281 449.898438 300.644531 450.4375 299.570312 450.707031 C 298.496094 450.972656 297.15625 451.242188 296.082031 451.511719 C 295.007812 451.777344 293.933594 452.046875 292.859375 452.316406 C 291.515625 452.585938 290.441406 452.851562 289.101562 452.851562 C 288.027344 453.121094 286.953125 453.121094 285.878906 453.390625 C 284.535156 453.660156 282.921875 453.660156 281.582031 453.925781 C 280.777344 453.925781 279.703125 454.195312 278.894531 454.195312 C 276.480469 454.464844 274.0625 454.464844 271.914062 454.464844 C 268.421875 454.464844 265.203125 454.195312 261.980469 453.925781 C 260.90625 453.925781 259.832031 453.660156 258.757812 453.390625 C 256.609375 453.121094 254.191406 452.851562 252.042969 452.316406 C 250.96875 452.046875 249.628906 451.777344 248.554688 451.511719 C 246.40625 450.972656 244.527344 450.4375 242.378906 449.898438 C 241.304688 449.632812 239.960938 449.09375 238.886719 448.824219 C 236.738281 448.289062 234.859375 447.484375 232.980469 446.675781 C 231.90625 446.410156 230.832031 445.871094 230.027344 445.601562 C 227.609375 444.527344 224.921875 443.1875 222.507812 442.113281 C 222.238281 441.84375 221.703125 441.84375 221.433594 441.574219 C 218.746094 439.964844 216.0625 438.351562 213.378906 436.742188 C 212.570312 436.207031 211.765625 435.667969 210.960938 435.132812 C 209.082031 433.789062 207.46875 432.445312 205.589844 431.101562 C 204.785156 430.296875 203.710938 429.492188 202.90625 428.953125 C 201.292969 427.613281 199.953125 426.269531 198.339844 424.925781 C 197.535156 424.121094 196.730469 423.316406 195.65625 422.511719 C 194.3125 420.898438 192.96875 419.558594 191.628906 417.945312 C 190.554688 416.871094 189.746094 416.066406 189.210938 415.261719 C 187.597656 413.382812 186.257812 411.234375 184.644531 409.351562 C 184.378906 408.816406 183.839844 408.277344 183.570312 407.742188 C 181.691406 405.058594 180.082031 402.371094 178.738281 399.6875 C 178.203125 398.882812 177.933594 398.074219 177.664062 397.269531 C 176.589844 395.121094 175.515625 393.242188 174.710938 391.09375 C 174.171875 390.019531 173.90625 388.945312 173.367188 387.871094 C 172.5625 385.992188 171.757812 384.113281 171.21875 381.964844 C 170.953125 380.890625 170.414062 379.546875 170.144531 378.472656 C 169.878906 377.667969 169.609375 376.863281 169.339844 376.058594 C 169.878906 408.816406 183.035156 439.695312 206.394531 462.789062 C 230.292969 486.6875 261.980469 499.84375 295.8125 499.84375 C 329.644531 499.84375 361.332031 486.6875 385.230469 462.789062 L 431.683594 416.601562 L 479.75 368.539062 L 525.664062 322.085938 C 531.839844 315.910156 538.824219 311.074219 546.878906 307.316406 C 563.257812 297.378906 582.054688 292.277344 601.117188 292.277344 C 603.804688 292.277344 606.21875 292.546875 608.90625 292.546875 C 609.441406 292.546875 609.980469 292.546875 610.515625 292.546875 C 612.664062 292.816406 614.8125 293.085938 616.960938 293.351562 C 618.035156 293.621094 619.109375 293.621094 620.183594 293.890625 C 622.332031 294.160156 624.210938 294.695312 626.359375 295.234375 C 627.433594 295.5 628.507812 295.769531 629.582031 296.039062 C 631.460938 296.574219 633.609375 297.113281 635.488281 297.917969 C 636.5625 298.1875 637.367188 298.722656 638.441406 298.992188 C 640.324219 299.796875 642.472656 300.335938 644.351562 301.410156 C 644.886719 301.675781 645.691406 301.945312 646.230469 302.214844 C 650.792969 304.363281 655.089844 306.777344 659.386719 309.464844 C 659.386719 309.464844 659.65625 309.464844 659.65625 309.734375 C 661.265625 310.808594 662.878906 312.148438 664.488281 313.222656 C 665.292969 313.761719 666.367188 314.566406 667.175781 315.101562 C 668.785156 316.175781 670.128906 317.519531 671.472656 318.863281 C 672.277344 319.667969 673.351562 320.472656 674.15625 321.277344 C 675.5 322.621094 676.839844 323.695312 677.914062 325.039062 C 678.722656 325.84375 679.792969 326.917969 680.601562 327.992188 C 681.675781 329.335938 683.015625 330.675781 684.089844 332.019531 C 684.898438 333.09375 685.703125 334.167969 686.507812 335.242188 C 688.117188 337.390625 689.730469 339.808594 691.074219 341.953125 C 692.148438 343.566406 693.222656 345.175781 694.027344 346.789062 C 694.832031 348.128906 695.367188 349.472656 696.175781 350.816406 C 696.980469 352.425781 697.785156 353.769531 698.324219 355.382812 C 698.859375 356.722656 699.398438 358.066406 699.933594 359.675781 C 700.472656 361.289062 701.277344 362.898438 701.8125 364.511719 C 702.351562 365.851562 702.617188 367.195312 703.15625 368.808594 C 703.425781 369.613281 703.691406 370.148438 703.691406 370.953125 C 703.15625 338.195312 690 307.316406 666.636719 284.222656 C 642.738281 260.054688 611.054688 246.898438 577.21875 246.898438 C 543.386719 246.898438 511.703125 260.054688 487.804688 283.953125 L 346.832031 424.925781 C 340.65625 431.101562 333.40625 436.207031 325.351562 439.695312 C 324.542969 440.234375 323.46875 440.769531 322.664062 441.039062 C 321.589844 441.574219 320.246094 442.382812 319.171875 442.917969 C 318.367188 443.457031 317.292969 443.992188 316.21875 444.527344 Z M 316.21875 444.527344 " fill-opacity="1" fill-rule="nonzero"/></g><g clip-path="url(#4496f22509)"><g transform="matrix(1, 0, 0, 1, 951, 191)"><g clip-path="url(#8c3f348f3e)"><g fill="#ff751f" fill-opacity="1"><g transform="translate(1.050693, 462.877686)"><g><path d="M 168.328125 6.234375 C 142.972656 6.234375 118.863281 2.285156 96 -5.609375 C 73.144531 -13.503906 54.546875 -24.722656 40.203125 -39.265625 C 25.867188 -53.816406 18.703125 -71.273438 18.703125 -91.640625 C 18.703125 -104.109375 22.859375 -114.082031 31.171875 -121.5625 C 39.484375 -129.039062 49.664062 -132.78125 61.71875 -132.78125 C 77.09375 -132.78125 89.351562 -128 98.5 -118.4375 C 107.644531 -108.882812 112.21875 -97.664062 112.21875 -84.78125 C 112.21875 -84.78125 110.65625 -84.257812 107.53125 -83.21875 C 104.414062 -82.1875 101.09375 -80.210938 97.5625 -77.296875 C 94.03125 -74.390625 91.640625 -69.613281 90.390625 -62.96875 C 89.972656 -61.300781 89.765625 -59.632812 89.765625 -57.96875 C 89.765625 -56.3125 89.765625 -54.648438 89.765625 -52.984375 C 89.765625 -40.929688 93.609375 -31.164062 101.296875 -23.6875 C 108.992188 -16.207031 118.660156 -10.703125 130.296875 -7.171875 C 141.929688 -3.640625 153.359375 -1.875 164.578125 -1.875 C 173.304688 -1.875 183.382812 -3.117188 194.8125 -5.609375 C 206.25 -8.097656 216.226562 -12.769531 224.75 -19.625 C 233.269531 -26.488281 237.53125 -36.15625 237.53125 -48.625 C 237.53125 -61.925781 232.75 -73.5625 223.1875 -83.53125 C 213.625 -93.507812 201.15625 -102.65625 185.78125 -110.96875 C 170.40625 -119.28125 153.988281 -127.695312 136.53125 -136.21875 C 119.070312 -144.738281 102.445312 -153.878906 86.65625 -163.640625 C 70.863281 -173.410156 57.5625 -184.53125 46.75 -197 C 35.945312 -209.46875 29.507812 -224.222656 27.4375 -241.265625 C 24.519531 -267.453125 28.984375 -288.851562 40.828125 -305.46875 C 52.679688 -322.09375 69.304688 -334.351562 90.703125 -342.25 C 112.109375 -350.15625 135.695312 -354.109375 161.46875 -354.109375 C 182.664062 -354.109375 202.613281 -350.570312 221.3125 -343.5 C 240.019531 -336.4375 255.191406 -326.253906 266.828125 -312.953125 C 278.460938 -299.660156 284.28125 -283.660156 284.28125 -264.953125 C 284.28125 -254.148438 280.742188 -245.523438 273.671875 -239.078125 C 266.609375 -232.640625 257.675781 -229.421875 246.875 -229.421875 C 233.570312 -229.421875 222.867188 -233.679688 214.765625 -242.203125 C 206.660156 -250.722656 202.609375 -260.382812 202.609375 -271.1875 C 202.609375 -271.1875 204.375 -271.804688 207.90625 -273.046875 C 211.4375 -274.296875 214.96875 -277.3125 218.5 -282.09375 C 222.039062 -286.875 223.8125 -294.460938 223.8125 -304.859375 C 223.8125 -317.328125 218.195312 -327.195312 206.96875 -334.46875 C 195.75 -341.738281 181 -345.375 162.71875 -345.375 C 146.09375 -345.375 131.648438 -341.835938 119.390625 -334.765625 C 107.128906 -327.703125 101 -315.65625 101 -298.625 C 101 -284.488281 105.878906 -272.222656 115.640625 -261.828125 C 125.410156 -251.441406 137.984375 -242.09375 153.359375 -233.78125 C 168.734375 -225.46875 185.148438 -217.363281 202.609375 -209.46875 C 220.066406 -201.570312 236.796875 -193.257812 252.796875 -184.53125 C 268.796875 -175.800781 282.195312 -165.828125 293 -154.609375 C 303.8125 -143.390625 309.84375 -130.085938 311.09375 -114.703125 C 314.414062 -88.941406 309.738281 -67.019531 297.0625 -48.9375 C 284.382812 -30.851562 266.613281 -17.132812 243.75 -7.78125 C 220.894531 1.5625 195.753906 6.234375 168.328125 6.234375 Z M 168.328125 6.234375 "/></g></g></g><g fill="#ff751f" fill-opacity="1"><g transform="translate(332.089394, 462.877686)"><g><path d="M 153.984375 6.234375 C 128.628906 6.234375 105.457031 0.207031 84.46875 -11.84375 C 63.476562 -23.894531 46.75 -40.101562 34.28125 -60.46875 C 21.8125 -80.832031 15.578125 -103.273438 15.578125 -127.796875 C 15.578125 -152.316406 21.8125 -174.65625 34.28125 -194.8125 C 46.75 -214.976562 63.476562 -231.085938 84.46875 -243.140625 C 105.457031 -255.191406 128.628906 -261.21875 153.984375 -261.21875 C 187.234375 -261.21875 214.457031 -252.28125 235.65625 -234.40625 C 256.851562 -216.53125 267.453125 -191.175781 267.453125 -158.34375 L 105.359375 -158.34375 C 107.023438 -118.863281 115.648438 -88.421875 131.234375 -67.015625 C 146.816406 -45.609375 166.453125 -34.90625 190.140625 -34.90625 C 207.597656 -34.90625 223.285156 -41.140625 237.203125 -53.609375 C 251.128906 -66.078125 261.421875 -82.082031 268.078125 -101.625 L 274.921875 -100.375 C 268.273438 -70.03125 254.769531 -44.675781 234.40625 -24.3125 C 214.039062 -3.945312 187.234375 6.234375 153.984375 6.234375 Z M 105.359375 -164.578125 L 183.90625 -164.578125 C 183.90625 -189.929688 181.304688 -211.234375 176.109375 -228.484375 C 170.921875 -245.734375 162.300781 -254.359375 150.25 -254.359375 C 138.195312 -254.359375 127.804688 -245.734375 119.078125 -228.484375 C 110.347656 -211.234375 105.773438 -189.929688 105.359375 -164.578125 Z M 105.359375 -164.578125 "/></g></g></g><g fill="#ff751f" fill-opacity="1"><g transform="translate(622.605372, 462.877686)"><g><path d="M 153.984375 6.234375 C 128.628906 6.234375 105.457031 0.207031 84.46875 -11.84375 C 63.476562 -23.894531 46.75 -40.101562 34.28125 -60.46875 C 21.8125 -80.832031 15.578125 -103.273438 15.578125 -127.796875 C 15.578125 -152.316406 21.8125 -174.65625 34.28125 -194.8125 C 46.75 -214.976562 63.476562 -231.085938 84.46875 -243.140625 C 105.457031 -255.191406 128.628906 -261.21875 153.984375 -261.21875 C 187.234375 -261.21875 214.457031 -252.28125 235.65625 -234.40625 C 256.851562 -216.53125 267.453125 -191.175781 267.453125 -158.34375 L 105.359375 -158.34375 C 107.023438 -118.863281 115.648438 -88.421875 131.234375 -67.015625 C 146.816406 -45.609375 166.453125 -34.90625 190.140625 -34.90625 C 207.597656 -34.90625 223.285156 -41.140625 237.203125 -53.609375 C 251.128906 -66.078125 261.421875 -82.082031 268.078125 -101.625 L 274.921875 -100.375 C 268.273438 -70.03125 254.769531 -44.675781 234.40625 -24.3125 C 214.039062 -3.945312 187.234375 6.234375 153.984375 6.234375 Z M 105.359375 -164.578125 L 183.90625 -164.578125 C 183.90625 -189.929688 181.304688 -211.234375 176.109375 -228.484375 C 170.921875 -245.734375 162.300781 -254.359375 150.25 -254.359375 C 138.195312 -254.359375 127.804688 -245.734375 119.078125 -228.484375 C 110.347656 -211.234375 105.773438 -189.929688 105.359375 -164.578125 Z M 105.359375 -164.578125 "/></g></g></g><g fill="#ff751f" fill-opacity="1"><g transform="translate(913.121366, 462.877686)"><g><path d="M 31.171875 0 L 31.171875 -386.515625 L 122.1875 -386.515625 L 122.1875 -152.734375 L 235.65625 -254.359375 L 244.375 -254.359375 L 132.78125 -153.359375 C 144.84375 -160.421875 158.664062 -165.71875 174.25 -169.25 C 189.832031 -172.789062 204.066406 -172.691406 216.953125 -168.953125 C 232.742188 -164.378906 245.003906 -156.894531 253.734375 -146.5 C 262.460938 -136.113281 270.046875 -123.539062 276.484375 -108.78125 C 282.929688 -94.03125 290.3125 -78.132812 298.625 -61.09375 C 308.175781 -41.976562 317.835938 -27.015625 327.609375 -16.203125 C 337.378906 -5.398438 342.265625 0 342.265625 0 C 342.265625 0 335.71875 0.722656 322.625 2.171875 C 309.53125 3.628906 291.96875 2.90625 269.9375 0 C 248.738281 -2.90625 232.425781 -10.28125 221 -22.125 C 209.570312 -33.976562 200.738281 -48.734375 194.5 -66.390625 C 188.269531 -84.054688 182.242188 -102.65625 176.421875 -122.1875 C 173.515625 -132.164062 169.148438 -138.921875 163.328125 -142.453125 C 157.515625 -145.984375 150.660156 -147.75 142.765625 -147.75 C 139.023438 -147.75 135.382812 -147.226562 131.84375 -146.1875 C 128.3125 -145.15625 125.09375 -143.804688 122.1875 -142.140625 L 122.1875 0 Z M 31.171875 0 "/></g></g></g><g fill="#ff751f" fill-opacity="1"><g transform="translate(1264.73295, 462.877686)"><g><path d="M 90.390625 6.234375 C 68.785156 6.234375 50.914062 0.414062 36.78125 -11.21875 C 22.644531 -22.851562 15.578125 -36.984375 15.578125 -53.609375 C 15.578125 -69.816406 19.628906 -82.804688 27.734375 -92.578125 C 35.847656 -102.347656 47.070312 -110.554688 61.40625 -117.203125 C 75.75 -123.847656 92.375 -130.597656 111.28125 -137.453125 C 130.1875 -144.316406 150.445312 -152.945312 172.0625 -163.34375 L 172.0625 -208.21875 C 172.0625 -222.769531 168.113281 -233.890625 160.21875 -241.578125 C 152.320312 -249.265625 142.554688 -253.109375 130.921875 -253.109375 C 119.703125 -253.109375 109.832031 -250.195312 101.3125 -244.375 C 92.789062 -238.5625 88.53125 -228.378906 88.53125 -213.828125 C 88.53125 -204.273438 90.191406 -197.003906 93.515625 -192.015625 C 96.835938 -187.023438 100.160156 -183.695312 103.484375 -182.03125 C 106.804688 -180.375 108.46875 -179.546875 108.46875 -179.546875 C 108.46875 -173.722656 105.144531 -167.28125 98.5 -160.21875 C 91.851562 -153.15625 83.539062 -149.207031 73.5625 -148.375 C 57.351562 -146.707031 45.507812 -150.65625 38.03125 -160.21875 C 30.550781 -169.78125 26.8125 -180.378906 26.8125 -192.015625 C 26.8125 -204.898438 31.484375 -216.429688 40.828125 -226.609375 C 50.179688 -236.796875 62.859375 -244.898438 78.859375 -250.921875 C 94.859375 -256.953125 112.421875 -259.96875 131.546875 -259.96875 C 171.441406 -259.96875 203.859375 -249.785156 228.796875 -229.421875 C 239.597656 -220.691406 248.007812 -210.300781 254.03125 -198.25 C 260.0625 -186.195312 263.078125 -172.273438 263.078125 -156.484375 L 263.078125 -52.984375 C 263.078125 -47.585938 263.703125 -42.707031 264.953125 -38.34375 C 266.203125 -33.976562 268.90625 -31.796875 273.0625 -31.796875 C 275.132812 -31.796875 277 -33.039062 278.65625 -35.53125 C 280.320312 -38.03125 281.363281 -43.847656 281.78125 -52.984375 L 286.78125 -52.375 C 286.78125 -36.15625 281.0625 -22.332031 269.625 -10.90625 C 258.195312 0.519531 244.378906 6.234375 228.171875 6.234375 C 213.628906 6.234375 201.160156 1.5625 190.765625 -7.78125 C 180.378906 -17.132812 174.351562 -28.878906 172.6875 -43.015625 C 168.113281 -35.117188 161.460938 -27.429688 152.734375 -19.953125 C 144.003906 -12.472656 134.238281 -6.238281 123.4375 -1.25 C 112.632812 3.738281 101.617188 6.234375 90.390625 6.234375 Z M 132.171875 -29.296875 C 147.960938 -29.296875 161.257812 -35.945312 172.0625 -49.25 L 172.0625 -157.71875 C 150.445312 -145.25 133.40625 -132.46875 120.9375 -119.375 C 108.46875 -106.289062 102.234375 -88.734375 102.234375 -66.703125 C 102.234375 -57.148438 105.039062 -48.523438 110.65625 -40.828125 C 116.269531 -33.140625 123.441406 -29.296875 132.171875 -29.296875 Z M 132.171875 -29.296875 "/></g></g></g></g></g></g></g></g></svg>