<svg xmlns="http://www.w3.org/2000/svg" xmlns:xlink="http://www.w3.org/1999/xlink" width="5000" zoomAndPan="magnify" viewBox="0 0 3750 749.999995" height="1000" preserveAspectRatio="xMidYMid meet" version="1.0"><defs><g/><clipPath id="a4a58e1e9f"><path d="M 0.453125 0.507812 L 613.628906 0.507812 L 613.628906 641 L 0.453125 641 Z M 0.453125 0.507812 " clip-rule="nonzero"/></clipPath><clipPath id="4b2880294e"><path d="M 36.453125 0.507812 L 577.628906 0.507812 C 597.511719 0.507812 613.628906 16.625 613.628906 36.507812 L 613.628906 604.476562 C 613.628906 624.359375 597.511719 640.476562 577.628906 640.476562 L 36.453125 640.476562 C 16.570312 640.476562 0.453125 624.359375 0.453125 604.476562 L 0.453125 36.507812 C 0.453125 16.625 16.570312 0.507812 36.453125 0.507812 Z M 36.453125 0.507812 " clip-rule="nonzero"/></clipPath><clipPath id="f32112c8da"><path d="M 0.453125 0.507812 L 613.628906 0.507812 L 613.628906 640.679688 L 0.453125 640.679688 Z M 0.453125 0.507812 " clip-rule="nonzero"/></clipPath><clipPath id="d6f311aba3"><path d="M 36.453125 0.507812 L 577.628906 0.507812 C 597.511719 0.507812 613.628906 16.625 613.628906 36.507812 L 613.628906 604.476562 C 613.628906 624.359375 597.511719 640.476562 577.628906 640.476562 L 36.453125 640.476562 C 16.570312 640.476562 0.453125 624.359375 0.453125 604.476562 L 0.453125 36.507812 C 0.453125 16.625 16.570312 0.507812 36.453125 0.507812 Z M 36.453125 0.507812 " clip-rule="nonzero"/></clipPath><clipPath id="c75b473280"><rect x="0" width="614" y="0" height="641"/></clipPath><clipPath id="48ce5584e3"><rect x="0" width="1563" y="0" height="679"/></clipPath></defs><g transform="matrix(1, 0, 0, 1, 1084, 27)"><g clip-path="url(#48ce5584e3)"><g fill="#2d71b0" fill-opacity="1"><g transform="translate(718.942037, 229.132103)"><g><path d="M 13.40625 0 L 13.40625 -3.421875 C 17.4375 -4.640625 20.191406 -7.265625 21.671875 -11.296875 C 23.160156 -15.328125 23.90625 -22.6875 23.90625 -33.375 L 23.90625 -150.578125 C 23.90625 -161.429688 23.160156 -168.828125 21.671875 -172.765625 C 20.191406 -176.710938 17.4375 -179.300781 13.40625 -180.53125 L 13.40625 -183.953125 L 55.96875 -183.953125 L 55.96875 -180.53125 C 51.9375 -179.300781 49.175781 -176.710938 47.6875 -172.765625 C 46.207031 -168.828125 45.46875 -161.429688 45.46875 -150.578125 L 45.46875 -33.375 C 45.46875 -22.6875 46.207031 -15.328125 47.6875 -11.296875 C 49.175781 -7.265625 51.9375 -4.640625 55.96875 -3.421875 L 55.96875 0 Z M 13.40625 0 "/></g></g></g><g fill="#2d71b0" fill-opacity="1"><g transform="translate(788.318225, 229.132103)"><g><path d="M 8.40625 0 L 8.40625 -3.421875 C 12.4375 -4.640625 15.195312 -7.265625 16.6875 -11.296875 C 18.175781 -15.328125 18.921875 -22.6875 18.921875 -33.375 L 18.921875 -93.8125 C 18.921875 -99.945312 18.566406 -104.546875 17.859375 -107.609375 C 17.160156 -110.671875 16.023438 -112.898438 14.453125 -114.296875 C 12.878906 -115.703125 10.863281 -116.929688 8.40625 -117.984375 L 8.40625 -120.875 L 37.3125 -133.5 L 39.421875 -131.65625 L 39.421875 -109.046875 C 47.128906 -115.179688 55.800781 -120.742188 65.4375 -125.734375 C 75.070312 -130.734375 84.96875 -133.234375 95.125 -133.234375 C 108.09375 -133.234375 118.253906 -129.460938 125.609375 -121.921875 C 132.960938 -114.390625 136.640625 -102.914062 136.640625 -87.5 L 136.640625 -33.375 C 136.640625 -22.6875 137.382812 -15.328125 138.875 -11.296875 C 140.363281 -7.265625 143.125 -4.640625 147.15625 -3.421875 L 147.15625 0 L 105.640625 0 L 105.640625 -3.421875 C 109.671875 -4.640625 112.429688 -7.265625 113.921875 -11.296875 C 115.410156 -15.328125 116.15625 -22.6875 116.15625 -33.375 L 116.15625 -82.25 C 116.15625 -95.914062 113.265625 -106.382812 107.484375 -113.65625 C 101.703125 -120.925781 93.03125 -124.5625 81.46875 -124.5625 C 74.28125 -124.5625 67.140625 -122.675781 60.046875 -118.90625 C 52.953125 -115.144531 46.078125 -110.457031 39.421875 -104.84375 L 39.421875 -33.375 C 39.421875 -22.6875 40.207031 -15.328125 41.78125 -11.296875 C 43.351562 -7.265625 46.066406 -4.640625 49.921875 -3.421875 L 49.921875 0 Z M 8.40625 0 "/></g></g></g><g fill="#2d71b0" fill-opacity="1"><g transform="translate(941.786744, 229.132103)"><g/></g></g><g fill="#2d71b0" fill-opacity="1"><g transform="translate(996.972349, 229.132103)"><g><path d="M 52.296875 0 L 52.296875 -3.421875 C 56.328125 -4.640625 59.085938 -7.265625 60.578125 -11.296875 C 62.066406 -15.328125 62.8125 -22.6875 62.8125 -33.375 L 62.8125 -179.75 L 49.921875 -179.75 C 38.191406 -179.75 29.257812 -177.90625 23.125 -174.21875 C 16.988281 -170.539062 11.644531 -163.972656 7.09375 -154.515625 L 4.203125 -155.046875 L 5.78125 -183.953125 L 141.109375 -183.953125 L 142.6875 -155.046875 L 139.796875 -154.515625 C 135.421875 -163.972656 130.164062 -170.539062 124.03125 -174.21875 C 117.894531 -177.90625 108.875 -179.75 96.96875 -179.75 L 84.609375 -179.75 L 84.609375 -33.375 C 84.609375 -22.6875 85.351562 -15.328125 86.84375 -11.296875 C 88.332031 -7.265625 91.09375 -4.640625 95.125 -3.421875 L 95.125 0 Z M 52.296875 0 "/></g></g></g><g fill="#2d71b0" fill-opacity="1"><g transform="translate(1144.133926, 229.132103)"><g><path d="M 7.09375 0 L 7.09375 -3.421875 C 11.125 -4.640625 13.882812 -7.265625 15.375 -11.296875 C 16.863281 -15.328125 17.609375 -22.6875 17.609375 -33.375 L 17.609375 -172.640625 C 17.609375 -178.773438 17.210938 -183.375 16.421875 -186.4375 C 15.628906 -189.507812 14.488281 -191.742188 13 -193.140625 C 11.519531 -194.546875 9.550781 -195.773438 7.09375 -196.828125 L 7.09375 -199.71875 L 35.734375 -212.328125 L 38.109375 -210.484375 L 38.109375 -109.046875 C 45.816406 -115.179688 54.488281 -120.742188 64.125 -125.734375 C 73.757812 -130.734375 83.65625 -133.234375 93.8125 -133.234375 C 106.78125 -133.234375 116.941406 -129.460938 124.296875 -121.921875 C 131.648438 -114.390625 135.328125 -102.914062 135.328125 -87.5 L 135.328125 -33.375 C 135.328125 -22.6875 136.070312 -15.328125 137.5625 -11.296875 C 139.050781 -7.265625 141.8125 -4.640625 145.84375 -3.421875 L 145.84375 0 L 104.328125 0 L 104.328125 -3.421875 C 108.359375 -4.640625 111.113281 -7.265625 112.59375 -11.296875 C 114.082031 -15.328125 114.828125 -22.6875 114.828125 -33.375 L 114.828125 -82.25 C 114.828125 -95.914062 111.9375 -106.382812 106.15625 -113.65625 C 100.375 -120.925781 91.703125 -124.5625 80.140625 -124.5625 C 72.960938 -124.5625 65.828125 -122.675781 58.734375 -118.90625 C 51.640625 -115.144531 44.765625 -110.457031 38.109375 -104.84375 L 38.109375 -33.375 C 38.109375 -22.6875 38.851562 -15.328125 40.34375 -11.296875 C 41.832031 -7.265625 44.585938 -4.640625 48.609375 -3.421875 L 48.609375 0 Z M 7.09375 0 "/></g></g></g><g fill="#2d71b0" fill-opacity="1"><g transform="translate(1296.288488, 229.132103)"><g><path d="M 71.734375 2.625 C 64.554688 2.625 57.285156 1.3125 49.921875 -1.3125 C 42.566406 -3.9375 35.820312 -7.921875 29.6875 -13.265625 C 23.5625 -18.609375 18.65625 -25.3125 14.96875 -33.375 C 11.289062 -41.4375 9.453125 -50.894531 9.453125 -61.75 C 9.453125 -76.113281 12.648438 -88.640625 19.046875 -99.328125 C 25.441406 -110.015625 33.894531 -118.335938 44.40625 -124.296875 C 54.914062 -130.253906 66.304688 -133.234375 78.578125 -133.234375 C 89.609375 -133.234375 99.019531 -131.085938 106.8125 -126.796875 C 114.613281 -122.503906 120.660156 -116.851562 124.953125 -109.84375 C 129.242188 -102.832031 131.476562 -95.125 131.65625 -86.71875 L 28.90625 -86.71875 C 28.382812 -82.863281 28.125 -78.832031 28.125 -74.625 C 28.125 -62.71875 30.441406 -52.164062 35.078125 -42.96875 C 39.722656 -33.769531 46.289062 -26.628906 54.78125 -21.546875 C 63.28125 -16.460938 73.222656 -13.921875 84.609375 -13.921875 C 94.773438 -13.921875 103.625 -16.023438 111.15625 -20.234375 C 118.6875 -24.441406 125.429688 -29.960938 131.390625 -36.796875 L 133.75 -34.421875 C 129.375 -28.296875 124.117188 -22.382812 117.984375 -16.6875 C 111.859375 -10.988281 104.984375 -6.34375 97.359375 -2.75 C 89.734375 0.832031 81.191406 2.625 71.734375 2.625 Z M 29.6875 -90.140625 L 110.625 -90.140625 C 109.75 -96.085938 107.601562 -101.992188 104.1875 -107.859375 C 100.769531 -113.734375 96.210938 -118.640625 90.515625 -122.578125 C 84.828125 -126.523438 77.957031 -128.5 69.90625 -128.5 C 58.6875 -128.675781 49.703125 -125.082031 42.953125 -117.71875 C 36.210938 -110.363281 31.789062 -101.171875 29.6875 -90.140625 Z M 29.6875 -90.140625 "/></g></g></g><g fill="#2d71b0" fill-opacity="1"><g transform="translate(1437.436676, 229.132103)"><g/></g></g><g fill="#ff751f" fill-opacity="1"><g transform="translate(718.942037, 577.327238)"><g><path d="M 18.765625 0 L 18.765625 -4.78125 C 24.398438 -6.5 28.257812 -10.175781 30.34375 -15.8125 C 32.4375 -21.457031 33.484375 -31.757812 33.484375 -46.71875 L 33.484375 -210.796875 C 33.484375 -225.992188 32.4375 -236.351562 30.34375 -241.875 C 28.257812 -247.394531 24.398438 -251.015625 18.765625 -252.734375 L 18.765625 -257.515625 L 78.359375 -257.515625 L 78.359375 -252.734375 C 72.710938 -251.015625 68.847656 -247.394531 66.765625 -241.875 C 64.679688 -236.351562 63.640625 -225.992188 63.640625 -210.796875 L 63.640625 -22.4375 C 63.640625 -11.40625 69.160156 -5.890625 80.203125 -5.890625 L 123.96875 -5.890625 C 141.625 -5.890625 155.171875 -8.523438 164.609375 -13.796875 C 174.054688 -19.066406 181.972656 -28.570312 188.359375 -42.3125 L 192.40625 -41.5625 L 189.828125 0 Z M 18.765625 0 "/></g></g></g><g fill="#ff751f" fill-opacity="1"><g transform="translate(905.819728, 577.327238)"><g><path d="M 109.625 3.671875 C 97.851562 3.671875 86.265625 1.832031 74.859375 -1.84375 C 63.453125 -5.519531 53.085938 -11.160156 43.765625 -18.765625 C 34.453125 -26.367188 27.035156 -36.054688 21.515625 -47.828125 C 16.003906 -59.597656 13.25 -73.453125 13.25 -89.390625 C 13.25 -108.523438 17.785156 -125.382812 26.859375 -139.96875 C 35.929688 -154.5625 47.820312 -165.96875 62.53125 -174.1875 C 77.25 -182.40625 92.945312 -186.515625 109.625 -186.515625 C 121.15625 -186.515625 132.5625 -184.734375 143.84375 -181.171875 C 155.125 -177.617188 165.421875 -172.039062 174.734375 -164.4375 C 184.054688 -156.832031 191.535156 -147.144531 197.171875 -135.375 C 202.816406 -123.601562 205.640625 -109.503906 205.640625 -93.078125 C 205.640625 -77.378906 202.757812 -63.519531 197 -51.5 C 191.238281 -39.488281 183.570312 -29.375 174 -21.15625 C 164.4375 -12.9375 154.015625 -6.742188 142.734375 -2.578125 C 131.453125 1.585938 120.414062 3.671875 109.625 3.671875 Z M 41.5625 -110.359375 C 41.5625 -98.585938 43.398438 -86.507812 47.078125 -74.125 C 50.765625 -61.738281 56.039062 -50.269531 62.90625 -39.71875 C 69.769531 -29.175781 78.046875 -20.59375 87.734375 -13.96875 C 97.421875 -7.351562 108.394531 -4.046875 120.65625 -4.046875 C 133.90625 -4.046875 144.695312 -7.171875 153.03125 -13.421875 C 161.375 -19.679688 167.566406 -27.957031 171.609375 -38.25 C 175.660156 -48.550781 177.6875 -59.59375 177.6875 -71.375 C 177.6875 -83.144531 175.722656 -95.46875 171.796875 -108.34375 C 167.867188 -121.21875 162.285156 -133.171875 155.046875 -144.203125 C 147.816406 -155.242188 139.175781 -164.070312 129.125 -170.6875 C 119.070312 -177.3125 108.035156 -180.253906 96.015625 -179.515625 C 83.503906 -179.023438 73.203125 -175.59375 65.109375 -169.21875 C 57.015625 -162.84375 51.066406 -154.503906 47.265625 -144.203125 C 43.460938 -133.898438 41.5625 -122.617188 41.5625 -110.359375 Z M 41.5625 -110.359375 "/></g></g></g><g fill="#ff751f" fill-opacity="1"><g transform="translate(1123.59884, 577.327238)"><g><path d="M 109.625 3.671875 C 97.851562 3.671875 86.265625 1.832031 74.859375 -1.84375 C 63.453125 -5.519531 53.085938 -11.160156 43.765625 -18.765625 C 34.453125 -26.367188 27.035156 -36.054688 21.515625 -47.828125 C 16.003906 -59.597656 13.25 -73.453125 13.25 -89.390625 C 13.25 -108.523438 17.785156 -125.382812 26.859375 -139.96875 C 35.929688 -154.5625 47.820312 -165.96875 62.53125 -174.1875 C 77.25 -182.40625 92.945312 -186.515625 109.625 -186.515625 C 121.15625 -186.515625 132.5625 -184.734375 143.84375 -181.171875 C 155.125 -177.617188 165.421875 -172.039062 174.734375 -164.4375 C 184.054688 -156.832031 191.535156 -147.144531 197.171875 -135.375 C 202.816406 -123.601562 205.640625 -109.503906 205.640625 -93.078125 C 205.640625 -77.378906 202.757812 -63.519531 197 -51.5 C 191.238281 -39.488281 183.570312 -29.375 174 -21.15625 C 164.4375 -12.9375 154.015625 -6.742188 142.734375 -2.578125 C 131.453125 1.585938 120.414062 3.671875 109.625 3.671875 Z M 41.5625 -110.359375 C 41.5625 -98.585938 43.398438 -86.507812 47.078125 -74.125 C 50.765625 -61.738281 56.039062 -50.269531 62.90625 -39.71875 C 69.769531 -29.175781 78.046875 -20.59375 87.734375 -13.96875 C 97.421875 -7.351562 108.394531 -4.046875 120.65625 -4.046875 C 133.90625 -4.046875 144.695312 -7.171875 153.03125 -13.421875 C 161.375 -19.679688 167.566406 -27.957031 171.609375 -38.25 C 175.660156 -48.550781 177.6875 -59.59375 177.6875 -71.375 C 177.6875 -83.144531 175.722656 -95.46875 171.796875 -108.34375 C 167.867188 -121.21875 162.285156 -133.171875 155.046875 -144.203125 C 147.816406 -155.242188 139.175781 -164.070312 129.125 -170.6875 C 119.070312 -177.3125 108.035156 -180.253906 96.015625 -179.515625 C 83.503906 -179.023438 73.203125 -175.59375 65.109375 -169.21875 C 57.015625 -162.84375 51.066406 -154.503906 47.265625 -144.203125 C 43.460938 -133.898438 41.5625 -122.617188 41.5625 -110.359375 Z M 41.5625 -110.359375 "/></g></g></g><g fill="#ff751f" fill-opacity="1"><g transform="translate(1338.066994, 577.327238)"><g><path d="M 111.46875 3.3125 C 101.414062 3.3125 91.789062 1.78125 82.59375 -1.28125 C 73.394531 -4.351562 65.238281 -8.21875 58.125 -12.875 L 58.125 52.609375 C 58.125 67.566406 59.164062 77.863281 61.25 83.5 C 63.332031 89.144531 67.195312 92.828125 72.84375 94.546875 L 72.84375 99.328125 L 14.71875 99.328125 L 14.71875 94.546875 C 20.351562 92.828125 24.210938 89.144531 26.296875 83.5 C 28.390625 77.863281 29.4375 67.566406 29.4375 52.609375 L 29.4375 -131.328125 C 29.4375 -139.910156 28.882812 -146.347656 27.78125 -150.640625 C 26.675781 -154.929688 25.078125 -158.054688 22.984375 -160.015625 C 20.898438 -161.984375 18.144531 -163.703125 14.71875 -165.171875 L 14.71875 -169.21875 L 54.8125 -186.875 L 58.125 -184.3125 L 58.125 -157.453125 C 68.175781 -164.804688 79.394531 -171.488281 91.78125 -177.5 C 104.164062 -183.507812 117.472656 -186.515625 131.703125 -186.515625 C 145.921875 -186.515625 158.671875 -182.832031 169.953125 -175.46875 C 181.234375 -168.113281 190.125 -157.691406 196.625 -144.203125 C 203.125 -130.710938 206.375 -114.894531 206.375 -96.75 C 206.375 -79.582031 202.695312 -63.394531 195.34375 -48.1875 C 187.988281 -32.988281 177.257812 -20.664062 163.15625 -11.21875 C 149.050781 -1.78125 131.820312 3.0625 111.46875 3.3125 Z M 58.125 -60.703125 C 58.125 -54.566406 59.960938 -48.125 63.640625 -41.375 C 67.316406 -34.632812 72.21875 -28.441406 78.34375 -22.796875 C 84.476562 -17.160156 91.410156 -12.5625 99.140625 -9 C 106.867188 -5.445312 114.898438 -3.671875 123.234375 -3.671875 C 142.609375 -3.671875 156.894531 -10.289062 166.09375 -23.53125 C 175.289062 -36.78125 179.890625 -54.078125 179.890625 -75.421875 C 179.890625 -85.710938 178.785156 -96.5625 176.578125 -107.96875 C 174.367188 -119.375 170.628906 -130.101562 165.359375 -140.15625 C 160.085938 -150.21875 153.160156 -158.375 144.578125 -164.625 C 135.992188 -170.875 125.203125 -174 112.203125 -174 C 101.660156 -174 91.972656 -171.726562 83.140625 -167.1875 C 74.304688 -162.65625 65.96875 -157.445312 58.125 -151.5625 Z M 58.125 -60.703125 "/></g></g></g><g fill="#ff751f" fill-opacity="1"><g transform="translate(1560.276744, 577.327238)"><g/></g></g><g clip-path="url(#a4a58e1e9f)"><g clip-path="url(#4b2880294e)"><g transform="matrix(1, 0, 0, 1, -0.000000000000227374, -0.000000000000049738)"><g clip-path="url(#c75b473280)"><g clip-path="url(#f32112c8da)"><g clip-path="url(#d6f311aba3)"><path fill="#2d71b0" d="M 0.453125 0.507812 L 613.628906 0.507812 L 613.628906 640.03125 L 0.453125 640.03125 Z M 0.453125 0.507812 " fill-opacity="1" fill-rule="nonzero"/></g></g></g></g></g></g><path fill="#ff751f" d="M 572.429688 263.078125 C 570.519531 259.992188 568.460938 257.003906 566.257812 254.113281 C 564.058594 251.226562 561.722656 248.449219 559.253906 245.785156 C 556.785156 243.125 554.191406 240.585938 551.476562 238.171875 C 548.761719 235.757812 545.9375 233.480469 543.003906 231.339844 C 540.070312 229.199219 537.039062 227.203125 533.914062 225.355469 C 530.789062 223.507812 527.582031 221.8125 524.289062 220.273438 C 521 218.734375 517.644531 217.355469 514.222656 216.140625 C 510.800781 214.925781 507.324219 213.878906 503.800781 212.996094 C 500.289062 212.035156 496.726562 211.328125 493.113281 210.878906 L 487.816406 210.101562 L 482.285156 209.730469 C 475.003906 209.222656 467.757812 209.511719 460.539062 210.59375 C 453.324219 211.636719 446.273438 213.363281 439.394531 215.777344 C 432.515625 218.191406 425.929688 221.242188 419.644531 224.941406 L 411.148438 230.523438 C 408.285156 232.429688 406.183594 234.195312 403.746094 236.121094 L 389.277344 247.269531 L 360.273438 269.527344 L 302.402344 314.167969 L 244.617188 358.699219 L 215.734375 380.957031 C 206.195312 388.148438 196.164062 396.558594 187.472656 401.75 C 182.34375 404.703125 176.984375 407.136719 171.382812 409.042969 C 165.785156 410.949219 160.054688 412.300781 154.191406 413.089844 C 148.320312 413.917969 142.433594 414.09375 136.523438 413.621094 C 135.042969 413.621094 133.558594 413.621094 132.109375 413.355469 L 127.710938 412.613281 L 123.347656 411.945312 L 119.070312 410.847656 C 117.625 410.5 116.1875 410.113281 114.757812 409.695312 C 113.328125 409.277344 111.910156 408.824219 110.503906 408.335938 C 109.097656 407.84375 107.703125 407.324219 106.324219 406.765625 C 104.941406 406.210938 103.574219 405.621094 102.222656 404.996094 C 100.871094 404.375 99.535156 403.71875 98.214844 403.03125 C 96.894531 402.339844 95.589844 401.621094 94.304688 400.871094 C 93.019531 400.117188 91.753906 399.335938 90.507812 398.519531 C 89.257812 397.707031 88.03125 396.863281 86.828125 395.992188 C 85.621094 395.117188 84.4375 394.214844 83.273438 393.28125 C 82.113281 392.351562 80.976562 391.394531 79.859375 390.40625 C 78.746094 389.417969 77.65625 388.40625 76.589844 387.367188 C 75.523438 386.324219 74.484375 385.261719 73.46875 384.167969 C 72.457031 383.078125 71.46875 381.964844 70.511719 380.824219 C 69.550781 379.6875 68.621094 378.523438 67.71875 377.339844 C 66.816406 376.15625 65.941406 374.949219 65.097656 373.722656 C 64.253906 372.496094 63.441406 371.25 62.65625 369.984375 C 61.875 368.714844 61.125 367.433594 60.402344 366.128906 C 59.683594 364.824219 58.996094 363.503906 58.339844 362.167969 C 57.683594 360.832031 57.0625 359.480469 56.46875 358.113281 C 55.878906 356.746094 55.324219 355.363281 54.800781 353.96875 C 54.28125 352.574219 53.792969 351.167969 53.335938 349.75 C 52.882812 348.332031 52.464844 346.90625 52.082031 345.464844 C 51.695312 344.027344 51.347656 342.582031 51.035156 341.125 C 50.71875 339.667969 50.441406 338.207031 50.199219 336.738281 C 49.957031 335.269531 49.75 333.792969 49.582031 332.316406 C 49.410156 330.835938 49.277344 329.351562 49.179688 327.867188 C 49.082031 326.382812 49.019531 324.894531 48.992188 323.40625 C 48.96875 321.917969 48.980469 320.429688 49.027344 318.941406 C 49.074219 317.453125 49.15625 315.964844 49.277344 314.480469 C 49.394531 312.996094 49.550781 311.515625 49.742188 310.039062 C 49.9375 308.5625 50.164062 307.09375 50.425781 305.625 C 50.691406 304.160156 50.992188 302.703125 51.324219 301.25 C 51.660156 299.800781 52.03125 298.359375 52.433594 296.925781 C 52.839844 295.492188 53.28125 294.070312 53.753906 292.660156 C 54.230469 291.25 54.738281 289.847656 55.28125 288.464844 C 55.824219 287.078125 56.398438 285.703125 57.011719 284.34375 C 57.621094 282.988281 58.261719 281.644531 58.9375 280.316406 C 59.613281 278.988281 60.320312 277.679688 61.058594 276.386719 C 61.796875 275.09375 62.570312 273.820312 63.371094 272.566406 C 64.171875 271.3125 65.003906 270.078125 65.863281 268.863281 C 66.726562 267.648438 67.617188 266.453125 68.535156 265.285156 C 69.457031 264.113281 70.40625 262.964844 71.378906 261.839844 C 72.355469 260.714844 73.359375 259.617188 74.386719 258.539062 C 75.417969 257.464844 76.472656 256.414062 77.554688 255.390625 C 78.632812 254.363281 79.738281 253.367188 80.867188 252.398438 C 82 251.425781 83.152344 250.484375 84.324219 249.570312 C 85.5 248.65625 86.699219 247.769531 87.917969 246.914062 C 89.136719 246.058594 90.375 245.234375 91.632812 244.4375 C 92.890625 243.644531 94.167969 242.878906 95.464844 242.144531 C 96.761719 241.414062 98.074219 240.710938 99.40625 240.042969 C 100.734375 239.375 102.082031 238.738281 103.441406 238.132812 C 104.804688 237.53125 106.179688 236.960938 107.566406 236.425781 C 108.957031 235.890625 110.359375 235.386719 111.773438 234.917969 C 113.1875 234.453125 114.609375 234.019531 116.042969 233.621094 C 117.480469 233.222656 118.921875 232.859375 120.375 232.53125 C 121.828125 232.203125 123.289062 231.910156 124.753906 231.652344 C 126.222656 231.398438 127.691406 231.175781 129.171875 230.992188 C 130.648438 230.804688 132.128906 230.65625 133.613281 230.546875 C 135.097656 230.433594 136.585938 230.355469 138.074219 230.316406 C 139.5625 230.277344 141.050781 230.273438 142.539062 230.304688 C 144.027344 230.335938 145.515625 230.40625 147 230.511719 C 148.484375 230.617188 149.96875 230.757812 151.445312 230.933594 C 152.925781 231.113281 154.398438 231.324219 155.867188 231.574219 C 157.335938 231.824219 158.796875 232.109375 160.25 232.429688 C 166.042969 233.613281 171.660156 235.363281 177.101562 237.683594 C 182.542969 240.003906 187.695312 242.84375 192.558594 246.207031 L 196.234375 248.609375 L 200.136719 251.632812 L 207.945312 257.636719 L 223.5625 269.667969 L 247.902344 288.445312 L 237.164062 302.578125 C 237.164062 302.578125 263.660156 288.324219 289.398438 307.082031 C 264.667969 286.945312 271.539062 257.621094 271.539062 257.621094 L 260.800781 271.753906 L 236.386719 252.761719 L 220.734375 240.695312 L 212.960938 234.671875 L 209.058594 231.652344 L 204.5 228.613281 C 198.480469 224.488281 192.113281 221.003906 185.390625 218.164062 C 178.667969 215.324219 171.730469 213.183594 164.578125 211.742188 C 162.796875 211.378906 161.007812 211.054688 159.214844 210.777344 C 157.417969 210.496094 155.617188 210.261719 153.808594 210.066406 C 152.003906 209.875 150.191406 209.726562 148.378906 209.621094 C 146.566406 209.515625 144.75 209.457031 142.933594 209.4375 C 141.113281 209.421875 139.296875 209.449219 137.484375 209.519531 C 135.667969 209.589844 133.855469 209.703125 132.042969 209.863281 C 130.234375 210.019531 128.429688 210.222656 126.628906 210.46875 C 124.828125 210.710938 123.035156 211 121.246094 211.332031 C 119.460938 211.664062 117.683594 212.039062 115.914062 212.457031 C 114.144531 212.878906 112.390625 213.335938 110.644531 213.839844 C 108.898438 214.34375 107.164062 214.886719 105.445312 215.476562 C 103.722656 216.0625 102.019531 216.691406 100.328125 217.359375 C 98.640625 218.027344 96.96875 218.738281 95.3125 219.488281 C 93.65625 220.238281 92.023438 221.027344 90.40625 221.855469 C 88.789062 222.683594 87.191406 223.554688 85.617188 224.460938 C 84.042969 225.367188 82.488281 226.308594 80.960938 227.289062 C 79.429688 228.269531 77.925781 229.289062 76.445312 230.34375 C 74.964844 231.398438 73.511719 232.484375 72.082031 233.609375 C 70.65625 234.734375 69.253906 235.890625 67.882812 237.085938 C 66.511719 238.277344 65.171875 239.5 63.859375 240.757812 C 62.546875 242.015625 61.265625 243.300781 60.015625 244.621094 C 58.761719 245.9375 57.546875 247.285156 56.359375 248.664062 C 55.175781 250.042969 54.023438 251.449219 52.90625 252.878906 C 51.789062 254.3125 50.707031 255.773438 49.660156 257.257812 C 48.613281 258.742188 47.605469 260.253906 46.632812 261.789062 C 45.65625 263.324219 44.722656 264.878906 43.824219 266.457031 C 42.925781 268.039062 42.066406 269.636719 41.242188 271.257812 C 40.421875 272.878906 39.640625 274.519531 38.898438 276.179688 C 38.15625 277.839844 37.457031 279.515625 36.796875 281.207031 C 36.132812 282.898438 35.515625 284.605469 34.9375 286.328125 C 34.359375 288.050781 33.820312 289.789062 33.328125 291.535156 C 32.832031 293.285156 32.382812 295.046875 31.972656 296.816406 C 31.5625 298.585938 31.195312 300.363281 30.871094 302.152344 C 30.550781 303.941406 30.269531 305.738281 30.03125 307.539062 C 29.796875 309.339844 29.601562 311.144531 29.453125 312.957031 C 29.304688 314.769531 29.199219 316.582031 29.136719 318.398438 C 29.074219 320.214844 29.058594 322.03125 29.082031 323.847656 C 29.109375 325.664062 29.179688 327.480469 29.292969 329.292969 C 29.40625 331.105469 29.566406 332.917969 29.765625 334.722656 C 29.96875 336.527344 30.210938 338.328125 30.5 340.121094 C 30.789062 341.917969 31.121094 343.703125 31.496094 345.480469 C 31.871094 347.257812 32.289062 349.027344 32.746094 350.785156 C 33.207031 352.542969 33.710938 354.289062 34.253906 356.023438 C 34.800781 357.757812 35.386719 359.476562 36.011719 361.179688 C 36.640625 362.886719 37.308594 364.574219 38.019531 366.25 C 38.726562 367.921875 39.476562 369.578125 40.265625 371.214844 C 41.054688 372.851562 41.882812 374.46875 42.75 376.0625 C 43.617188 377.660156 44.523438 379.234375 45.464844 380.789062 C 46.410156 382.339844 47.390625 383.871094 48.40625 385.375 C 49.425781 386.882812 50.480469 388.363281 51.566406 389.816406 C 52.65625 391.273438 53.78125 392.699219 54.9375 394.101562 C 56.097656 395.5 57.285156 396.871094 58.511719 398.214844 C 59.734375 399.558594 60.992188 400.871094 62.277344 402.152344 C 63.566406 403.433594 64.882812 404.683594 66.234375 405.902344 C 67.582031 407.121094 68.957031 408.308594 70.363281 409.457031 C 71.769531 410.609375 73.199219 411.726562 74.660156 412.8125 C 76.121094 413.894531 77.605469 414.941406 79.113281 415.953125 C 80.625 416.960938 82.15625 417.9375 83.714844 418.871094 C 85.273438 419.808594 86.851562 420.707031 88.449219 421.570312 C 90.050781 422.429688 91.671875 423.25 93.3125 424.03125 C 94.953125 424.816406 96.609375 425.558594 98.285156 426.257812 C 99.960938 426.960938 101.65625 427.621094 103.363281 428.242188 C 105.070312 428.863281 106.792969 429.441406 108.527344 429.980469 C 110.265625 430.515625 112.011719 431.011719 113.773438 431.464844 L 119.070312 432.804688 L 124.371094 433.671875 L 129.671875 434.484375 C 131.4375 434.695312 133.203125 434.714844 135.113281 434.820312 C 142.378906 435.367188 149.621094 435.144531 156.839844 434.148438 C 164.058594 433.167969 171.113281 431.5 178.007812 429.148438 C 184.902344 426.796875 191.507812 423.808594 197.824219 420.175781 C 209.960938 412.828125 218.457031 405.300781 228.382812 397.898438 L 257.480469 375.519531 L 315.421875 330.984375 L 373.203125 286.46875 L 401.980469 264.226562 L 416.429688 253.082031 C 418.796875 251.3125 421.324219 249.175781 423.585938 247.78125 L 430.332031 243.328125 C 435.433594 240.328125 440.777344 237.847656 446.359375 235.886719 C 451.945312 233.929688 457.667969 232.527344 463.527344 231.6875 C 469.386719 230.796875 475.277344 230.574219 481.191406 231.015625 L 485.605469 231.226562 L 489.988281 231.882812 C 492.925781 232.238281 495.816406 232.828125 498.660156 233.648438 C 500.09375 234.003906 501.515625 234.394531 502.929688 234.820312 C 504.34375 235.246094 505.746094 235.703125 507.136719 236.199219 C 508.527344 236.691406 509.90625 237.214844 511.273438 237.777344 C 512.636719 238.335938 513.988281 238.925781 515.324219 239.550781 C 516.664062 240.175781 517.984375 240.835938 519.289062 241.523438 C 520.59375 242.210938 521.882812 242.929688 523.152344 243.683594 C 524.425781 244.433594 525.675781 245.214844 526.90625 246.027344 C 528.140625 246.839844 529.351562 247.679688 530.546875 248.550781 C 531.738281 249.417969 532.90625 250.316406 534.054688 251.246094 C 535.203125 252.171875 536.332031 253.125 537.433594 254.105469 C 538.535156 255.085938 539.613281 256.09375 540.667969 257.128906 C 541.722656 258.160156 542.75 259.21875 543.75 260.304688 C 544.753906 261.386719 545.730469 262.492188 546.679688 263.621094 C 547.628906 264.753906 548.550781 265.90625 549.441406 267.082031 C 550.335938 268.253906 551.199219 269.449219 552.035156 270.667969 C 552.871094 271.882812 553.675781 273.121094 554.453125 274.375 C 555.230469 275.632812 555.972656 276.90625 556.6875 278.195312 C 557.402344 279.488281 558.085938 280.796875 558.734375 282.121094 C 559.386719 283.445312 560.003906 284.785156 560.589844 286.140625 C 561.175781 287.492188 561.730469 288.863281 562.25 290.242188 C 562.769531 291.625 563.257812 293.015625 563.707031 294.421875 C 564.160156 295.828125 564.578125 297.242188 564.964844 298.667969 C 565.347656 300.089844 565.699219 301.523438 566.011719 302.96875 C 566.328125 304.410156 566.605469 305.855469 566.851562 307.3125 C 567.097656 308.769531 567.304688 310.230469 567.480469 311.695312 C 567.65625 313.160156 567.792969 314.628906 567.898438 316.101562 C 568 317.574219 568.066406 319.046875 568.097656 320.523438 C 568.132812 322 568.128906 323.472656 568.085938 324.949219 C 568.046875 326.425781 567.972656 327.898438 567.863281 329.371094 C 567.75 330.839844 567.605469 332.308594 567.421875 333.773438 C 567.242188 335.238281 567.023438 336.699219 566.773438 338.152344 C 566.519531 339.605469 566.234375 341.054688 565.910156 342.492188 C 565.589844 343.933594 565.230469 345.367188 564.839844 346.789062 C 564.449219 348.210938 564.023438 349.625 563.5625 351.027344 C 563.101562 352.429688 562.609375 353.820312 562.082031 355.199219 C 561.554688 356.578125 560.996094 357.941406 560.402344 359.292969 C 559.808594 360.644531 559.183594 361.980469 558.527344 363.300781 C 557.867188 364.625 557.179688 365.929688 556.457031 367.214844 C 555.738281 368.503906 554.984375 369.773438 554.203125 371.023438 C 553.421875 372.277344 552.609375 373.507812 551.769531 374.722656 C 550.925781 375.933594 550.054688 377.125 549.15625 378.292969 C 548.257812 379.464844 547.328125 380.613281 546.375 381.738281 C 545.421875 382.863281 544.4375 383.964844 543.429688 385.042969 C 542.421875 386.121094 541.390625 387.171875 540.328125 388.203125 C 539.269531 389.230469 538.1875 390.230469 537.078125 391.207031 C 535.972656 392.183594 534.84375 393.128906 533.6875 394.050781 C 532.535156 394.972656 531.359375 395.863281 530.164062 396.726562 C 528.96875 397.59375 527.75 398.425781 526.511719 399.230469 C 525.277344 400.039062 524.019531 400.8125 522.746094 401.558594 C 521.472656 402.300781 520.179688 403.015625 518.871094 403.695312 C 517.5625 404.378906 516.238281 405.027344 514.898438 405.644531 C 513.558594 406.265625 512.203125 406.847656 510.835938 407.402344 C 509.464844 407.953125 508.085938 408.472656 506.691406 408.960938 C 505.296875 409.445312 503.894531 409.898438 502.476562 410.3125 C 501.0625 410.730469 499.636719 411.117188 498.203125 411.464844 C 496.769531 411.8125 495.328125 412.128906 493.878906 412.40625 C 492.429688 412.683594 490.972656 412.929688 489.511719 413.136719 C 488.050781 413.347656 486.585938 413.519531 485.117188 413.660156 C 483.648438 413.796875 482.175781 413.898438 480.703125 413.964844 C 479.226562 414.03125 477.753906 414.0625 476.277344 414.058594 C 474.800781 414.054688 473.324219 414.011719 471.851562 413.9375 C 470.378906 413.863281 468.90625 413.75 467.4375 413.601562 C 465.96875 413.457031 464.503906 413.273438 463.046875 413.054688 C 461.585938 412.839844 460.132812 412.585938 458.683594 412.296875 C 452.886719 411.164062 447.257812 409.460938 441.804688 407.1875 C 436.347656 404.917969 431.175781 402.121094 426.289062 398.800781 L 422.628906 396.414062 L 418.726562 393.429688 L 410.917969 387.40625 L 395.285156 375.359375 L 370.183594 355.855469 L 380.921875 341.722656 C 380.921875 341.722656 354.425781 355.996094 328.6875 337.238281 C 353.417969 357.359375 346.546875 386.699219 346.546875 386.699219 L 357.285156 372.566406 L 382.476562 392 L 398.148438 404.066406 L 405.988281 410.105469 L 409.929688 413.128906 L 414.523438 416.164062 C 420.566406 420.265625 426.960938 423.71875 433.703125 426.523438 C 440.445312 429.332031 447.402344 431.4375 454.570312 432.839844 C 457.246094 433.375 459.933594 433.808594 462.640625 434.144531 C 465.347656 434.480469 468.0625 434.71875 470.785156 434.855469 C 473.511719 434.996094 476.234375 435.039062 478.960938 434.980469 C 481.6875 434.921875 484.410156 434.765625 487.125 434.507812 C 489.839844 434.253906 492.542969 433.898438 495.230469 433.445312 C 497.921875 432.996094 500.589844 432.445312 503.238281 431.800781 C 505.890625 431.15625 508.511719 430.414062 511.109375 429.578125 C 513.703125 428.742188 516.265625 427.8125 518.796875 426.792969 C 521.324219 425.769531 523.8125 424.660156 526.261719 423.457031 C 528.707031 422.253906 531.109375 420.964844 533.464844 419.589844 C 535.816406 418.210938 538.121094 416.75 540.367188 415.207031 C 542.617188 413.664062 544.804688 412.042969 546.9375 410.339844 C 549.066406 408.636719 551.132812 406.859375 553.132812 405.007812 C 555.136719 403.15625 557.066406 401.234375 558.929688 399.238281 C 560.792969 397.246094 562.582031 395.191406 564.292969 393.066406 C 566.007812 390.945312 567.640625 388.765625 569.195312 386.523438 C 570.75 384.28125 572.21875 381.988281 573.609375 379.640625 C 574.996094 377.292969 576.296875 374.898438 577.511719 372.457031 C 578.726562 370.015625 579.851562 367.53125 580.886719 365.007812 C 581.917969 362.484375 582.859375 359.929688 583.710938 357.335938 C 584.558594 354.746094 585.3125 352.125 585.96875 349.480469 C 586.628906 346.832031 587.191406 344.164062 587.65625 341.476562 C 588.121094 338.792969 588.488281 336.089844 588.757812 333.375 C 589.027344 330.664062 589.199219 327.941406 589.269531 325.214844 C 589.339844 322.492188 589.3125 319.765625 589.1875 317.039062 C 589.0625 314.316406 588.835938 311.601562 588.515625 308.890625 C 588.191406 306.183594 587.769531 303.492188 587.253906 300.8125 C 586.734375 298.136719 586.121094 295.480469 585.40625 292.847656 C 584.695312 290.214844 583.890625 287.613281 582.992188 285.039062 C 582.089844 282.464844 581.097656 279.925781 580.015625 277.421875 C 578.929688 274.917969 577.757812 272.460938 576.496094 270.042969 C 575.230469 267.625 573.882812 265.257812 572.449219 262.9375 Z M 572.429688 263.078125 " fill-opacity="1" fill-rule="nonzero"/></g></g></svg>