<svg xmlns="http://www.w3.org/2000/svg" xmlns:xlink="http://www.w3.org/1999/xlink" width="5000" zoomAndPan="magnify" viewBox="0 0 3750 749.999995" height="1000" preserveAspectRatio="xMidYMid meet" version="1.0"><defs><g/><clipPath id="41d15e31c4"><path d="M 606 94 L 622.210938 94 L 622.210938 571 L 606 571 Z M 606 94 " clip-rule="nonzero"/></clipPath><clipPath id="95ca8fd9ce"><path d="M 43.414062 94 L 59 94 L 59 571 L 43.414062 571 Z M 43.414062 94 " clip-rule="nonzero"/></clipPath><clipPath id="e992ae09bc"><path d="M 94 43.039062 L 571 43.039062 L 571 59 L 94 59 Z M 94 43.039062 " clip-rule="nonzero"/></clipPath><clipPath id="dc8b85fa4d"><path d="M 94 606 L 571 606 L 571 621.839844 L 94 621.839844 Z M 94 606 " clip-rule="nonzero"/></clipPath><clipPath id="e54b72dfcd"><path d="M 570 43.039062 L 622.210938 43.039062 L 622.210938 95 L 570 95 Z M 570 43.039062 " clip-rule="nonzero"/></clipPath><clipPath id="767c9a0c7c"><path d="M 43.414062 43.039062 L 95 43.039062 L 95 95 L 43.414062 95 Z M 43.414062 43.039062 " clip-rule="nonzero"/></clipPath><clipPath id="84edad6471"><path d="M 570 570 L 622.210938 570 L 622.210938 621.839844 L 570 621.839844 Z M 570 570 " clip-rule="nonzero"/></clipPath><clipPath id="8d3429927f"><path d="M 43.414062 570 L 95 570 L 95 621.839844 L 43.414062 621.839844 Z M 43.414062 570 " clip-rule="nonzero"/></clipPath><clipPath id="5a8f96239e"><path d="M 41.214844 40.839844 L 623.5 40.839844 L 623.5 623.125 L 41.214844 623.125 Z M 41.214844 40.839844 " clip-rule="nonzero"/></clipPath><clipPath id="62e08afc0f"><path d="M 341 274 L 554 274 L 554 441.546875 L 341 441.546875 Z M 341 274 " clip-rule="nonzero"/></clipPath><clipPath id="c02c894574"><path d="M 112 223.648438 L 325 223.648438 L 325 390 L 112 390 Z M 112 223.648438 " clip-rule="nonzero"/></clipPath><clipPath id="2a4b9a6139"><path d="M 103 223.648438 L 562.171875 223.648438 L 562.171875 441.546875 L 103 441.546875 Z M 103 223.648438 " clip-rule="nonzero"/></clipPath><clipPath id="70878c0247"><path d="M 710 27 L 1555.480469 27 L 1555.480469 690.839844 L 710 690.839844 Z M 710 27 " clip-rule="nonzero"/></clipPath><clipPath id="65cd77b849"><rect x="0" width="846" y="0" height="664"/></clipPath><clipPath id="0d3333e4a9"><rect x="0" width="1556" y="0" height="691"/></clipPath></defs><g transform="matrix(1, 0, 0, 1, 1067, 15)"><g clip-path="url(#0d3333e4a9)"><g clip-path="url(#41d15e31c4)"><path fill="#2d71b0" d="M 606.960938 94.28125 L 624.386719 94.28125 L 624.386719 570.574219 L 606.960938 570.574219 Z M 606.960938 94.28125 " fill-opacity="1" fill-rule="nonzero"/></g><g clip-path="url(#95ca8fd9ce)"><path fill="#2d71b0" d="M 41.214844 94.28125 L 58.640625 94.28125 L 58.640625 570.574219 L 41.214844 570.574219 Z M 41.214844 94.28125 " fill-opacity="1" fill-rule="nonzero"/></g><g clip-path="url(#e992ae09bc)"><path fill="#2d71b0" d="M 94.652344 40.839844 L 570.949219 40.839844 L 570.949219 58.265625 L 94.652344 58.265625 Z M 94.652344 40.839844 " fill-opacity="1" fill-rule="nonzero"/></g><g clip-path="url(#dc8b85fa4d)"><path fill="#2d71b0" d="M 94.652344 606.585938 L 570.949219 606.585938 L 570.949219 624.011719 L 94.652344 624.011719 Z M 94.652344 606.585938 " fill-opacity="1" fill-rule="nonzero"/></g><g clip-path="url(#e54b72dfcd)"><path fill="#2d71b0" d="M 606.960938 58.265625 L 606.960938 94.28125 L 624.386719 94.28125 L 624.386719 40.839844 L 570.949219 40.839844 L 570.949219 58.265625 Z M 606.960938 58.265625 " fill-opacity="1" fill-rule="nonzero"/></g><g clip-path="url(#767c9a0c7c)"><path fill="#2d71b0" d="M 58.640625 58.265625 L 94.652344 58.265625 L 94.652344 40.839844 L 41.214844 40.839844 L 41.214844 94.28125 L 58.640625 94.28125 Z M 58.640625 58.265625 " fill-opacity="1" fill-rule="nonzero"/></g><g clip-path="url(#84edad6471)"><path fill="#2d71b0" d="M 606.960938 606.585938 L 570.949219 606.585938 L 570.949219 624.011719 L 624.386719 624.011719 L 624.386719 570.574219 L 606.960938 570.574219 Z M 606.960938 606.585938 " fill-opacity="1" fill-rule="nonzero"/></g><g clip-path="url(#8d3429927f)"><path fill="#2d71b0" d="M 58.640625 606.585938 L 58.640625 570.574219 L 41.214844 570.574219 L 41.214844 624.011719 L 94.652344 624.011719 L 94.652344 606.585938 Z M 58.640625 606.585938 " fill-opacity="1" fill-rule="nonzero"/></g><g clip-path="url(#5a8f96239e)"><path stroke-linecap="butt" transform="matrix(1.831082, 0, 0, 1.831082, 41.216013, 40.841794)" fill="none" stroke-linejoin="miter" d="M -0.000638471 -0.00106512 L -0.000638471 318.483851 L 318.484278 318.483851 L 318.484278 -0.00106512 L -0.000638471 -0.00106512 " stroke="#2d71b0" stroke-width="10.649444" stroke-opacity="1" stroke-miterlimit="4"/></g><g clip-path="url(#62e08afc0f)"><path fill="#ff751f" d="M 498.160156 376.769531 C 486.382812 388.546875 470.675781 395.015625 453.816406 395.015625 C 437.1875 395.015625 421.484375 388.546875 409.472656 376.769531 L 373.90625 341.203125 L 341.34375 373.765625 L 376.910156 409.332031 C 397.464844 429.886719 424.71875 441.203125 453.816406 441.203125 C 470.214844 441.203125 485.917969 437.738281 500.46875 430.582031 C 508.089844 426.886719 515.25 422.496094 521.714844 417.183594 C 522.640625 416.261719 525.875 413.488281 529.570312 409.792969 C 544.8125 394.78125 553.125 374.921875 553.125 353.671875 C 553.125 350.902344 552.894531 348.363281 552.664062 345.820312 C 552.664062 345.589844 552.664062 345.128906 552.433594 344.898438 C 552.203125 342.589844 551.738281 340.277344 551.507812 338.199219 C 551.507812 337.738281 551.277344 337.277344 551.277344 336.8125 C 550.816406 334.734375 550.355469 332.65625 549.660156 330.578125 C 549.429688 330.117188 549.429688 329.65625 549.199219 329.191406 C 548.507812 327.34375 547.8125 325.265625 547.121094 323.417969 C 546.890625 322.957031 546.660156 322.496094 546.429688 322.035156 C 545.503906 320.1875 544.8125 318.339844 543.886719 316.492188 C 543.65625 316.027344 543.425781 315.566406 543.195312 315.105469 C 542.269531 313.257812 541.117188 311.640625 539.960938 309.792969 C 539.730469 309.332031 539.5 309.101562 539.039062 308.636719 C 537.882812 307.023438 536.726562 305.40625 535.34375 303.789062 C 535.113281 303.328125 534.648438 303.09375 534.417969 302.632812 C 533.03125 301.015625 531.648438 299.632812 530.261719 298.015625 C 530.03125 297.785156 529.570312 297.320312 529.335938 297.089844 C 527.953125 295.703125 526.335938 294.320312 524.71875 292.933594 C 524.257812 292.703125 524.027344 292.242188 523.5625 292.011719 C 521.949219 290.625 520.332031 289.46875 518.714844 288.316406 C 518.253906 288.082031 518.019531 287.851562 517.558594 287.621094 C 515.941406 286.46875 514.09375 285.3125 512.246094 284.386719 C 511.785156 284.15625 511.324219 283.925781 511.09375 283.695312 C 509.246094 282.773438 507.398438 281.847656 505.550781 280.925781 C 505.089844 280.691406 504.625 280.460938 504.164062 280.460938 C 502.316406 279.769531 500.238281 279.078125 498.390625 278.382812 C 497.929688 278.152344 497.464844 278.152344 497.003906 277.921875 C 494.925781 277.230469 493.078125 276.765625 491 276.304688 C 490.539062 276.304688 490.078125 276.074219 489.382812 276.074219 C 487.304688 275.613281 485.226562 275.382812 483.148438 275.152344 C 482.6875 275.152344 481.992188 274.917969 481.53125 274.917969 C 480.605469 274.917969 479.914062 274.917969 478.992188 274.6875 C 485.917969 277.691406 492.386719 282.078125 497.929688 287.621094 C 522.410156 312.5625 522.410156 352.289062 498.160156 376.769531 Z M 498.160156 376.769531 " fill-opacity="1" fill-rule="nonzero"/></g><g clip-path="url(#c02c894574)"><path fill="#ff751f" d="M 167.207031 288.082031 C 178.984375 276.304688 194.691406 269.839844 211.550781 269.839844 C 228.179688 269.839844 243.882812 276.304688 255.890625 288.082031 L 291.457031 323.648438 L 324.023438 291.085938 L 288.457031 255.519531 C 267.902344 234.964844 240.648438 223.648438 211.550781 223.648438 C 195.152344 223.648438 179.449219 227.113281 164.667969 234.273438 C 157.046875 237.96875 149.886719 242.355469 143.417969 247.667969 C 142.496094 248.589844 139.261719 251.363281 135.566406 255.058594 C 120.324219 270.070312 112.011719 289.929688 112.011719 311.179688 C 112.011719 313.949219 112.242188 316.492188 112.472656 319.03125 C 112.472656 319.953125 112.703125 320.878906 112.933594 321.570312 C 113.164062 323.1875 113.394531 325.035156 113.625 326.652344 C 113.859375 327.578125 114.089844 328.730469 114.320312 329.65625 C 114.78125 331.039062 115.011719 332.65625 115.472656 334.042969 C 115.707031 335.199219 116.167969 336.121094 116.628906 337.046875 C 117.089844 338.429688 117.554688 339.816406 118.015625 340.972656 C 118.476562 341.894531 118.9375 343.050781 119.402344 343.972656 C 120.09375 345.128906 120.554688 346.515625 121.25 347.667969 C 121.710938 348.59375 122.402344 349.515625 122.863281 350.671875 C 123.558594 351.824219 124.25 352.980469 124.945312 354.136719 C 125.636719 355.058594 126.328125 355.984375 127.023438 356.90625 C 127.714844 358.0625 128.640625 358.984375 129.332031 360.140625 C 130.023438 361.0625 130.71875 361.988281 131.640625 362.679688 C 132.566406 363.605469 133.488281 364.757812 134.414062 365.683594 C 135.105469 366.605469 136.027344 367.300781 136.953125 367.992188 C 137.875 368.917969 138.800781 369.839844 139.957031 370.765625 C 140.878906 371.457031 141.804688 372.148438 142.726562 372.84375 C 143.652344 373.535156 144.804688 374.460938 145.960938 375.152344 C 146.882812 375.84375 147.808594 376.539062 148.960938 377 C 150.117188 377.691406 151.273438 378.386719 152.425781 379.078125 C 153.351562 379.769531 154.503906 380.234375 155.660156 380.695312 C 156.816406 381.386719 157.96875 381.847656 159.125 382.3125 C 160.277344 382.773438 161.203125 383.234375 162.359375 383.695312 C 163.511719 384.160156 164.898438 384.621094 166.050781 385.082031 C 167.207031 385.542969 168.363281 385.777344 169.515625 386.238281 C 170.902344 386.699219 172.058594 386.929688 173.441406 387.160156 C 174.597656 387.390625 175.753906 387.625 177.136719 387.855469 C 178.523438 388.085938 179.910156 388.316406 181.066406 388.546875 C 182.21875 388.777344 183.605469 388.777344 184.757812 389.007812 C 185.222656 389.007812 185.914062 389.007812 186.375 389.007812 C 179.449219 386.007812 172.980469 381.617188 167.4375 376.074219 C 142.726562 352.289062 142.726562 312.5625 167.207031 288.082031 Z M 167.207031 288.082031 " fill-opacity="1" fill-rule="nonzero"/></g><g clip-path="url(#2a4b9a6139)"><path fill="#ff751f" d="M 229.332031 393.628906 C 228.410156 394.089844 227.253906 394.550781 226.332031 395.015625 C 225.40625 395.476562 224.484375 395.707031 223.789062 395.9375 C 222.867188 396.398438 221.710938 396.863281 220.789062 397.09375 C 219.863281 397.324219 218.941406 397.785156 218.015625 398.015625 C 217.09375 398.246094 215.9375 398.710938 215.015625 398.941406 C 214.089844 399.171875 212.9375 399.402344 212.011719 399.632812 C 211.089844 399.863281 210.164062 400.09375 209.242188 400.324219 C 208.085938 400.554688 207.160156 400.789062 206.007812 400.789062 C 205.082031 401.019531 204.160156 401.019531 203.234375 401.25 C 202.082031 401.480469 200.695312 401.480469 199.539062 401.710938 C 198.847656 401.710938 197.925781 401.941406 197.230469 401.941406 C 195.152344 402.171875 193.074219 402.171875 191.226562 402.171875 C 188.222656 402.171875 185.453125 401.941406 182.679688 401.710938 C 181.757812 401.710938 180.832031 401.480469 179.910156 401.25 C 178.0625 401.019531 175.984375 400.789062 174.136719 400.324219 C 173.210938 400.09375 172.058594 399.863281 171.132812 399.632812 C 169.285156 399.171875 167.667969 398.707031 165.820312 398.246094 C 164.898438 398.015625 163.742188 397.554688 162.820312 397.324219 C 160.972656 396.863281 159.355469 396.167969 157.738281 395.476562 C 156.816406 395.246094 155.890625 394.78125 155.199219 394.550781 C 153.121094 393.628906 150.808594 392.472656 148.730469 391.550781 C 148.5 391.320312 148.039062 391.320312 147.808594 391.085938 C 145.5 389.703125 143.1875 388.316406 140.878906 386.929688 C 140.1875 386.46875 139.492188 386.007812 138.800781 385.542969 C 137.183594 384.390625 135.796875 383.234375 134.179688 382.082031 C 133.488281 381.386719 132.566406 380.695312 131.871094 380.234375 C 130.488281 379.078125 129.332031 377.921875 127.945312 376.769531 C 127.253906 376.074219 126.558594 375.382812 125.636719 374.691406 C 124.480469 373.304688 123.328125 372.148438 122.171875 370.765625 C 121.25 369.839844 120.554688 369.148438 120.09375 368.453125 C 118.707031 366.835938 117.554688 364.988281 116.167969 363.375 C 115.9375 362.910156 115.472656 362.449219 115.242188 361.988281 C 113.625 359.679688 112.242188 357.367188 111.085938 355.058594 C 110.625 354.367188 110.394531 353.671875 110.164062 352.980469 C 109.238281 351.132812 108.316406 349.515625 107.621094 347.667969 C 107.160156 346.746094 106.929688 345.820312 106.46875 344.898438 C 105.773438 343.28125 105.082031 341.664062 104.621094 339.816406 C 104.390625 338.894531 103.925781 337.738281 103.695312 336.8125 C 103.464844 336.121094 103.234375 335.429688 103.003906 334.734375 C 103.464844 362.910156 114.78125 389.472656 134.875 409.332031 C 155.429688 429.886719 182.679688 441.203125 211.78125 441.203125 C 240.878906 441.203125 268.132812 429.886719 288.6875 409.332031 L 328.640625 369.609375 L 369.980469 328.269531 L 409.472656 288.316406 C 414.785156 283.003906 420.792969 278.84375 427.71875 275.613281 C 441.808594 267.066406 457.972656 262.679688 474.371094 262.679688 C 476.679688 262.679688 478.757812 262.910156 481.070312 262.910156 C 481.53125 262.910156 481.992188 262.910156 482.453125 262.910156 C 484.300781 263.140625 486.148438 263.371094 487.996094 263.601562 C 488.921875 263.832031 489.84375 263.832031 490.769531 264.066406 C 492.617188 264.296875 494.234375 264.757812 496.082031 265.21875 C 497.003906 265.449219 497.929688 265.679688 498.851562 265.914062 C 500.46875 266.375 502.316406 266.835938 503.933594 267.527344 C 504.855469 267.761719 505.550781 268.222656 506.472656 268.453125 C 508.089844 269.144531 509.9375 269.609375 511.554688 270.53125 C 512.015625 270.761719 512.710938 270.992188 513.171875 271.222656 C 517.097656 273.070312 520.792969 275.152344 524.488281 277.460938 C 524.488281 277.460938 524.71875 277.460938 524.71875 277.691406 C 526.105469 278.613281 527.488281 279.769531 528.875 280.691406 C 529.570312 281.15625 530.492188 281.847656 531.183594 282.308594 C 532.570312 283.234375 533.726562 284.386719 534.878906 285.542969 C 535.574219 286.234375 536.496094 286.929688 537.191406 287.621094 C 538.34375 288.777344 539.5 289.699219 540.421875 290.855469 C 541.117188 291.546875 542.039062 292.472656 542.734375 293.394531 C 543.65625 294.550781 544.8125 295.703125 545.734375 296.859375 C 546.429688 297.785156 547.121094 298.707031 547.8125 299.632812 C 549.199219 301.480469 550.585938 303.558594 551.738281 305.40625 C 552.664062 306.789062 553.585938 308.175781 554.28125 309.5625 C 554.972656 310.71875 555.433594 311.871094 556.128906 313.027344 C 556.820312 314.410156 557.515625 315.566406 557.976562 316.953125 C 558.4375 318.105469 558.898438 319.261719 559.363281 320.648438 C 559.824219 322.035156 560.515625 323.417969 560.976562 324.804688 C 561.441406 325.960938 561.671875 327.113281 562.132812 328.5 C 562.363281 329.191406 562.59375 329.65625 562.59375 330.347656 C 562.132812 302.171875 550.816406 275.613281 530.722656 255.75 C 510.167969 234.964844 482.917969 223.648438 453.816406 223.648438 C 424.71875 223.648438 397.464844 234.964844 376.910156 255.519531 L 255.660156 376.769531 C 250.351562 382.082031 244.113281 386.46875 237.183594 389.472656 C 236.492188 389.933594 235.570312 390.394531 234.875 390.625 C 233.953125 391.085938 232.796875 391.78125 231.875 392.242188 C 231.179688 392.703125 230.257812 393.167969 229.332031 393.628906 Z M 229.332031 393.628906 " fill-opacity="1" fill-rule="nonzero"/></g><g clip-path="url(#70878c0247)"><g transform="matrix(1, 0, 0, 1, 710, 27)"><g clip-path="url(#65cd77b849)"><g fill="#2d71b0" fill-opacity="1"><g transform="translate(0.531333, 213.904956)"><g><path d="M 13.421875 0 L 13.421875 -3.421875 C 17.460938 -4.648438 20.226562 -7.28125 21.71875 -11.3125 C 23.207031 -15.351562 23.953125 -22.726562 23.953125 -33.4375 L 23.953125 -150.875 C 23.953125 -161.75 23.207031 -169.160156 21.71875 -173.109375 C 20.226562 -177.066406 17.460938 -179.660156 13.421875 -180.890625 L 13.421875 -184.3125 L 56.078125 -184.3125 L 56.078125 -180.890625 C 52.046875 -179.660156 49.28125 -177.066406 47.78125 -173.109375 C 46.289062 -169.160156 45.546875 -161.75 45.546875 -150.875 L 45.546875 -33.4375 C 45.546875 -22.726562 46.289062 -15.351562 47.78125 -11.3125 C 49.28125 -7.28125 52.046875 -4.648438 56.078125 -3.421875 L 56.078125 0 Z M 13.421875 0 "/></g></g></g><g fill="#2d71b0" fill-opacity="1"><g transform="translate(70.04009, 213.904956)"><g><path d="M 8.421875 0 L 8.421875 -3.421875 C 12.460938 -4.648438 15.226562 -7.28125 16.71875 -11.3125 C 18.207031 -15.351562 18.953125 -22.726562 18.953125 -33.4375 L 18.953125 -94 C 18.953125 -100.144531 18.597656 -104.75 17.890625 -107.8125 C 17.191406 -110.882812 16.050781 -113.125 14.46875 -114.53125 C 12.894531 -115.9375 10.878906 -117.164062 8.421875 -118.21875 L 8.421875 -121.109375 L 37.390625 -133.75 L 39.5 -131.90625 L 39.5 -109.265625 C 47.21875 -115.410156 55.90625 -120.984375 65.5625 -125.984375 C 75.21875 -130.984375 85.132812 -133.484375 95.3125 -133.484375 C 108.300781 -133.484375 118.484375 -129.707031 125.859375 -122.15625 C 133.234375 -114.613281 136.921875 -103.117188 136.921875 -87.671875 L 136.921875 -33.4375 C 136.921875 -22.726562 137.664062 -15.351562 139.15625 -11.3125 C 140.644531 -7.28125 143.410156 -4.648438 147.453125 -3.421875 L 147.453125 0 L 105.84375 0 L 105.84375 -3.421875 C 109.882812 -4.648438 112.648438 -7.28125 114.140625 -11.3125 C 115.628906 -15.351562 116.375 -22.726562 116.375 -33.4375 L 116.375 -82.40625 C 116.375 -96.101562 113.476562 -106.59375 107.6875 -113.875 C 101.894531 -121.15625 93.207031 -124.796875 81.625 -124.796875 C 74.425781 -124.796875 67.269531 -122.910156 60.15625 -119.140625 C 53.050781 -115.367188 46.164062 -110.675781 39.5 -105.0625 L 39.5 -33.4375 C 39.5 -22.726562 40.285156 -15.351562 41.859375 -11.3125 C 43.441406 -7.28125 46.164062 -4.648438 50.03125 -3.421875 L 50.03125 0 Z M 8.421875 0 "/></g></g></g><g fill="#2d71b0" fill-opacity="1"><g transform="translate(223.801868, 213.904956)"><g/></g></g><g fill="#2d71b0" fill-opacity="1"><g transform="translate(279.092926, 213.904956)"><g><path d="M 52.390625 0 L 52.390625 -3.421875 C 56.429688 -4.648438 59.195312 -7.28125 60.6875 -11.3125 C 62.175781 -15.351562 62.921875 -22.726562 62.921875 -33.4375 L 62.921875 -180.09375 L 50.03125 -180.09375 C 38.269531 -180.09375 29.316406 -178.25 23.171875 -174.5625 C 17.023438 -170.875 11.671875 -164.289062 7.109375 -154.8125 L 4.21875 -155.34375 L 5.796875 -184.3125 L 141.390625 -184.3125 L 142.96875 -155.34375 L 140.078125 -154.8125 C 135.679688 -164.289062 130.410156 -170.875 124.265625 -174.5625 C 118.128906 -178.25 109.09375 -180.09375 97.15625 -180.09375 L 84.78125 -180.09375 L 84.78125 -33.4375 C 84.78125 -22.726562 85.523438 -15.351562 87.015625 -11.3125 C 88.503906 -7.28125 91.269531 -4.648438 95.3125 -3.421875 L 95.3125 0 Z M 52.390625 0 "/></g></g></g><g fill="#2d71b0" fill-opacity="1"><g transform="translate(426.535711, 213.904956)"><g><path d="M 7.109375 0 L 7.109375 -3.421875 C 11.148438 -4.648438 13.914062 -7.28125 15.40625 -11.3125 C 16.894531 -15.351562 17.640625 -22.726562 17.640625 -33.4375 L 17.640625 -172.984375 C 17.640625 -179.128906 17.242188 -183.738281 16.453125 -186.8125 C 15.660156 -189.882812 14.519531 -192.117188 13.03125 -193.515625 C 11.539062 -194.921875 9.566406 -196.148438 7.109375 -197.203125 L 7.109375 -200.109375 L 35.8125 -212.75 L 38.171875 -210.90625 L 38.171875 -109.265625 C 45.898438 -115.410156 54.585938 -120.984375 64.234375 -125.984375 C 73.890625 -130.984375 83.8125 -133.484375 94 -133.484375 C 106.988281 -133.484375 117.164062 -129.707031 124.53125 -122.15625 C 131.90625 -114.613281 135.59375 -103.117188 135.59375 -87.671875 L 135.59375 -33.4375 C 135.59375 -22.726562 136.335938 -15.351562 137.828125 -11.3125 C 139.328125 -7.28125 142.09375 -4.648438 146.125 -3.421875 L 146.125 0 L 104.53125 0 L 104.53125 -3.421875 C 108.5625 -4.648438 111.320312 -7.28125 112.8125 -11.3125 C 114.3125 -15.351562 115.0625 -22.726562 115.0625 -33.4375 L 115.0625 -82.40625 C 115.0625 -96.101562 112.164062 -106.59375 106.375 -113.875 C 100.582031 -121.15625 91.894531 -124.796875 80.3125 -124.796875 C 73.113281 -124.796875 65.957031 -122.910156 58.84375 -119.140625 C 51.738281 -115.367188 44.847656 -110.675781 38.171875 -105.0625 L 38.171875 -33.4375 C 38.171875 -22.726562 38.914062 -15.351562 40.40625 -11.3125 C 41.90625 -7.28125 44.671875 -4.648438 48.703125 -3.421875 L 48.703125 0 Z M 7.109375 0 "/></g></g></g><g fill="#2d71b0" fill-opacity="1"><g transform="translate(578.981021, 213.904956)"><g><path d="M 71.875 2.640625 C 64.675781 2.640625 57.390625 1.320312 50.015625 -1.3125 C 42.648438 -3.945312 35.894531 -7.941406 29.75 -13.296875 C 23.601562 -18.648438 18.6875 -25.363281 15 -33.4375 C 11.320312 -41.507812 9.484375 -50.988281 9.484375 -61.875 C 9.484375 -76.269531 12.6875 -88.820312 19.09375 -99.53125 C 25.5 -110.238281 33.96875 -118.570312 44.5 -124.53125 C 55.03125 -130.5 66.4375 -133.484375 78.71875 -133.484375 C 89.78125 -133.484375 99.21875 -131.332031 107.03125 -127.03125 C 114.84375 -122.738281 120.894531 -117.082031 125.1875 -110.0625 C 129.488281 -103.039062 131.726562 -95.316406 131.90625 -86.890625 L 28.96875 -86.890625 C 28.4375 -83.023438 28.171875 -78.988281 28.171875 -74.78125 C 28.171875 -62.84375 30.492188 -52.265625 35.140625 -43.046875 C 39.796875 -33.828125 46.378906 -26.671875 54.890625 -21.578125 C 63.410156 -16.492188 73.375 -13.953125 84.78125 -13.953125 C 94.957031 -13.953125 103.820312 -16.054688 111.375 -20.265625 C 118.925781 -24.484375 125.679688 -30.015625 131.640625 -36.859375 L 134.015625 -34.484375 C 129.628906 -28.347656 124.363281 -22.425781 118.21875 -16.71875 C 112.070312 -11.007812 105.179688 -6.351562 97.546875 -2.75 C 89.910156 0.84375 81.351562 2.640625 71.875 2.640625 Z M 29.75 -90.3125 L 110.84375 -90.3125 C 109.96875 -96.28125 107.816406 -102.203125 104.390625 -108.078125 C 100.972656 -113.960938 96.410156 -118.878906 90.703125 -122.828125 C 85.003906 -126.773438 78.113281 -128.75 70.03125 -128.75 C 58.800781 -128.925781 49.804688 -125.328125 43.046875 -117.953125 C 36.285156 -110.585938 31.851562 -101.375 29.75 -90.3125 Z M 29.75 -90.3125 "/></g></g></g><g fill="#2d71b0" fill-opacity="1"><g transform="translate(720.398926, 213.904956)"><g/></g></g><g fill="#ff751f" fill-opacity="1"><g transform="translate(0.531333, 562.765449)"><g><path d="M 18.796875 0 L 18.796875 -4.796875 C 24.453125 -6.515625 28.320312 -10.195312 30.40625 -15.84375 C 32.5 -21.5 33.546875 -31.820312 33.546875 -46.8125 L 33.546875 -211.1875 C 33.546875 -226.425781 32.5 -236.8125 30.40625 -242.34375 C 28.320312 -247.875 24.453125 -251.5 18.796875 -253.21875 L 18.796875 -258 L 78.5 -258 L 78.5 -253.21875 C 72.851562 -251.5 68.984375 -247.875 66.890625 -242.34375 C 64.804688 -236.8125 63.765625 -226.425781 63.765625 -211.1875 L 63.765625 -22.484375 C 63.765625 -11.421875 69.289062 -5.890625 80.34375 -5.890625 L 124.203125 -5.890625 C 141.898438 -5.890625 155.476562 -8.53125 164.9375 -13.8125 C 174.394531 -19.101562 182.320312 -28.628906 188.71875 -42.390625 L 192.765625 -41.65625 L 190.1875 0 Z M 18.796875 0 "/></g></g></g><g fill="#ff751f" fill-opacity="1"><g transform="translate(187.766124, 562.765449)"><g><path d="M 109.84375 3.6875 C 98.039062 3.6875 86.425781 1.84375 75 -1.84375 C 63.570312 -5.53125 53.191406 -11.179688 43.859375 -18.796875 C 34.523438 -26.410156 27.09375 -36.113281 21.5625 -47.90625 C 16.03125 -59.707031 13.265625 -73.59375 13.265625 -89.5625 C 13.265625 -108.726562 17.8125 -125.617188 26.90625 -140.234375 C 36 -154.859375 47.914062 -166.285156 62.65625 -174.515625 C 77.394531 -182.753906 93.125 -186.875 109.84375 -186.875 C 121.382812 -186.875 132.804688 -185.09375 144.109375 -181.53125 C 155.410156 -177.96875 165.726562 -172.375 175.0625 -164.75 C 184.40625 -157.132812 191.898438 -147.425781 197.546875 -135.625 C 203.203125 -123.832031 206.03125 -109.707031 206.03125 -93.25 C 206.03125 -77.519531 203.144531 -63.632812 197.375 -51.59375 C 191.601562 -39.5625 183.925781 -29.425781 174.34375 -21.1875 C 164.757812 -12.957031 154.3125 -6.753906 143 -2.578125 C 131.695312 1.597656 120.644531 3.6875 109.84375 3.6875 Z M 41.65625 -110.578125 C 41.65625 -98.773438 43.492188 -86.671875 47.171875 -74.265625 C 50.859375 -61.859375 56.140625 -50.367188 63.015625 -39.796875 C 69.898438 -29.234375 78.195312 -20.632812 87.90625 -14 C 97.613281 -7.363281 108.609375 -4.046875 120.890625 -4.046875 C 134.160156 -4.046875 144.972656 -7.179688 153.328125 -13.453125 C 161.679688 -19.722656 167.882812 -28.015625 171.9375 -38.328125 C 175.988281 -48.648438 178.015625 -59.707031 178.015625 -71.5 C 178.015625 -83.300781 176.050781 -95.648438 172.125 -108.546875 C 168.195312 -121.441406 162.609375 -133.414062 155.359375 -144.46875 C 148.109375 -155.53125 139.445312 -164.378906 129.375 -171.015625 C 119.300781 -177.648438 108.242188 -180.597656 96.203125 -179.859375 C 83.671875 -179.367188 73.347656 -175.929688 65.234375 -169.546875 C 57.128906 -163.160156 51.171875 -154.804688 47.359375 -144.484375 C 43.554688 -134.160156 41.65625 -122.859375 41.65625 -110.578125 Z M 41.65625 -110.578125 "/></g></g></g><g fill="#ff751f" fill-opacity="1"><g transform="translate(405.961384, 562.765449)"><g><path d="M 109.84375 3.6875 C 98.039062 3.6875 86.425781 1.84375 75 -1.84375 C 63.570312 -5.53125 53.191406 -11.179688 43.859375 -18.796875 C 34.523438 -26.410156 27.09375 -36.113281 21.5625 -47.90625 C 16.03125 -59.707031 13.265625 -73.59375 13.265625 -89.5625 C 13.265625 -108.726562 17.8125 -125.617188 26.90625 -140.234375 C 36 -154.859375 47.914062 -166.285156 62.65625 -174.515625 C 77.394531 -182.753906 93.125 -186.875 109.84375 -186.875 C 121.382812 -186.875 132.804688 -185.09375 144.109375 -181.53125 C 155.410156 -177.96875 165.726562 -172.375 175.0625 -164.75 C 184.40625 -157.132812 191.898438 -147.425781 197.546875 -135.625 C 203.203125 -123.832031 206.03125 -109.707031 206.03125 -93.25 C 206.03125 -77.519531 203.144531 -63.632812 197.375 -51.59375 C 191.601562 -39.5625 183.925781 -29.425781 174.34375 -21.1875 C 164.757812 -12.957031 154.3125 -6.753906 143 -2.578125 C 131.695312 1.597656 120.644531 3.6875 109.84375 3.6875 Z M 41.65625 -110.578125 C 41.65625 -98.773438 43.492188 -86.671875 47.171875 -74.265625 C 50.859375 -61.859375 56.140625 -50.367188 63.015625 -39.796875 C 69.898438 -29.234375 78.195312 -20.632812 87.90625 -14 C 97.613281 -7.363281 108.609375 -4.046875 120.890625 -4.046875 C 134.160156 -4.046875 144.972656 -7.179688 153.328125 -13.453125 C 161.679688 -19.722656 167.882812 -28.015625 171.9375 -38.328125 C 175.988281 -48.648438 178.015625 -59.707031 178.015625 -71.5 C 178.015625 -83.300781 176.050781 -95.648438 172.125 -108.546875 C 168.195312 -121.441406 162.609375 -133.414062 155.359375 -144.46875 C 148.109375 -155.53125 139.445312 -164.378906 129.375 -171.015625 C 119.300781 -177.648438 108.242188 -180.597656 96.203125 -179.859375 C 83.671875 -179.367188 73.347656 -175.929688 65.234375 -169.546875 C 57.128906 -163.160156 51.171875 -154.804688 47.359375 -144.484375 C 43.554688 -134.160156 41.65625 -122.859375 41.65625 -110.578125 Z M 41.65625 -110.578125 "/></g></g></g><g fill="#ff751f" fill-opacity="1"><g transform="translate(620.839361, 562.765449)"><g><path d="M 111.671875 3.3125 C 101.597656 3.3125 91.953125 1.78125 82.734375 -1.28125 C 73.523438 -4.351562 65.359375 -8.226562 58.234375 -12.90625 L 58.234375 52.703125 C 58.234375 67.691406 59.273438 78.007812 61.359375 83.65625 C 63.453125 89.3125 67.328125 93 72.984375 94.71875 L 72.984375 99.515625 L 14.75 99.515625 L 14.75 94.71875 C 20.394531 93 24.257812 89.3125 26.34375 83.65625 C 28.4375 78.007812 29.484375 67.691406 29.484375 52.703125 L 29.484375 -131.578125 C 29.484375 -140.179688 28.929688 -146.632812 27.828125 -150.9375 C 26.722656 -155.238281 25.125 -158.367188 23.03125 -160.328125 C 20.945312 -162.296875 18.1875 -164.015625 14.75 -165.484375 L 14.75 -169.546875 L 54.921875 -187.234375 L 58.234375 -184.65625 L 58.234375 -157.75 C 68.304688 -165.125 79.546875 -171.820312 91.953125 -177.84375 C 104.367188 -183.863281 117.703125 -186.875 131.953125 -186.875 C 146.203125 -186.875 158.976562 -183.1875 170.28125 -175.8125 C 181.582031 -168.4375 190.488281 -157.988281 197 -144.46875 C 203.507812 -130.957031 206.765625 -115.113281 206.765625 -96.9375 C 206.765625 -79.738281 203.078125 -63.519531 195.703125 -48.28125 C 188.335938 -33.050781 177.585938 -20.703125 163.453125 -11.234375 C 149.328125 -1.773438 132.066406 3.070312 111.671875 3.3125 Z M 58.234375 -60.8125 C 58.234375 -54.664062 60.078125 -48.210938 63.765625 -41.453125 C 67.453125 -34.703125 72.363281 -28.5 78.5 -22.84375 C 84.644531 -17.195312 91.585938 -12.59375 99.328125 -9.03125 C 107.066406 -5.46875 115.113281 -3.6875 123.46875 -3.6875 C 142.882812 -3.6875 157.195312 -10.320312 166.40625 -23.59375 C 175.625 -36.863281 180.234375 -54.1875 180.234375 -75.5625 C 180.234375 -85.875 179.125 -96.742188 176.90625 -108.171875 C 174.695312 -119.597656 170.953125 -130.347656 165.671875 -140.421875 C 160.390625 -150.503906 153.445312 -158.675781 144.84375 -164.9375 C 136.25 -171.207031 125.441406 -174.34375 112.421875 -174.34375 C 101.847656 -174.34375 92.140625 -172.066406 83.296875 -167.515625 C 74.453125 -162.972656 66.097656 -157.753906 58.234375 -151.859375 Z M 58.234375 -60.8125 "/></g></g></g><g fill="#ff751f" fill-opacity="1"><g transform="translate(843.473726, 562.765449)"><g/></g></g></g></g></g></g></g></svg>