<svg xmlns="http://www.w3.org/2000/svg" version="1.1" xmlns:xlink="http://www.w3.org/1999/xlink" width="1024" height="1024"><svg xmlns="http://www.w3.org/2000/svg" version="1.1" xmlns:xlink="http://www.w3.org/1999/xlink" width="1024" height="1024"><svg xmlns="http://www.w3.org/2000/svg" xmlns:xlink="http://www.w3.org/1999/xlink" width="1024" zoomAndPan="magnify" viewBox="0 0 768 767.999994" height="1024" preserveAspectRatio="xMidYMid meet" version="1.0"><defs><clipPath id="6403018e94"><path d="M 396 300 L 703 300 L 703 541.214844 L 396 541.214844 Z M 396 300 " clip-rule="nonzero"></path></clipPath><clipPath id="616923548c"><path d="M 65 226.964844 L 372 226.964844 L 372 466 L 65 466 Z M 65 226.964844 " clip-rule="nonzero"></path></clipPath><clipPath id="914077ee6e"><path d="M 52 226.964844 L 716 226.964844 L 716 541.214844 L 52 541.214844 Z M 52 226.964844 " clip-rule="nonzero"></path></clipPath></defs><g clip-path="url(#6403018e94)"><path fill="#ff751f" d="M 622.710938 448.007812 C 605.707031 465.011719 583.035156 474.347656 558.699219 474.347656 C 534.695312 474.347656 512.023438 465.011719 494.6875 448.007812 L 443.34375 396.664062 L 396.332031 443.671875 L 447.675781 495.015625 C 477.347656 524.691406 516.691406 541.027344 558.699219 541.027344 C 582.371094 541.027344 605.042969 536.023438 626.046875 525.691406 C 637.046875 520.355469 647.382812 514.019531 656.71875 506.351562 C 658.050781 505.019531 662.71875 501.019531 668.054688 495.683594 C 690.058594 474.011719 702.0625 445.339844 702.0625 414.667969 C 702.0625 410.667969 701.726562 407 701.394531 403.332031 C 701.394531 403 701.394531 402.332031 701.058594 402 C 700.726562 398.664062 700.058594 395.332031 699.726562 392.328125 C 699.726562 391.664062 699.394531 390.996094 699.394531 390.328125 C 698.726562 387.328125 698.058594 384.328125 697.058594 381.328125 C 696.726562 380.660156 696.726562 379.992188 696.394531 379.328125 C 695.394531 376.660156 694.390625 373.660156 693.390625 370.992188 C 693.058594 370.324219 692.726562 369.660156 692.390625 368.992188 C 691.058594 366.324219 690.058594 363.65625 688.726562 360.992188 C 688.390625 360.324219 688.058594 359.65625 687.722656 358.988281 C 686.390625 356.324219 684.722656 353.988281 683.058594 351.320312 C 682.722656 350.65625 682.390625 350.320312 681.722656 349.65625 C 680.054688 347.320312 678.390625 344.988281 676.390625 342.652344 C 676.054688 341.988281 675.390625 341.652344 675.054688 340.988281 C 673.054688 338.652344 671.054688 336.652344 669.054688 334.316406 C 668.722656 333.984375 668.054688 333.316406 667.71875 332.984375 C 665.71875 330.984375 663.386719 328.984375 661.050781 326.984375 C 660.386719 326.648438 660.050781 325.984375 659.386719 325.648438 C 657.050781 323.648438 654.71875 321.984375 652.382812 320.316406 C 651.71875 319.980469 651.382812 319.648438 650.71875 319.316406 C 648.382812 317.648438 645.714844 315.980469 643.050781 314.648438 C 642.382812 314.3125 641.714844 313.980469 641.382812 313.648438 C 638.714844 312.3125 636.046875 310.980469 633.378906 309.648438 C 632.714844 309.3125 632.046875 308.980469 631.378906 308.980469 C 628.710938 307.980469 625.710938 306.980469 623.046875 305.980469 C 622.378906 305.644531 621.710938 305.644531 621.042969 305.3125 C 618.042969 304.3125 615.375 303.644531 612.375 302.980469 C 611.710938 302.980469 611.042969 302.644531 610.042969 302.644531 C 607.042969 301.980469 604.042969 301.644531 601.039062 301.3125 C 600.375 301.3125 599.375 300.976562 598.707031 300.976562 C 597.375 300.976562 596.371094 300.976562 595.039062 300.644531 C 605.042969 304.980469 614.375 311.3125 622.378906 319.316406 C 657.71875 355.324219 657.71875 412.667969 622.710938 448.007812 Z M 622.710938 448.007812 " fill-opacity="1" fill-rule="nonzero"></path></g><g clip-path="url(#616923548c)"><path fill="#ff751f" d="M 144.949219 319.980469 C 161.953125 302.980469 184.625 293.644531 208.960938 293.644531 C 232.96875 293.644531 255.636719 302.980469 272.976562 319.980469 L 324.320312 371.324219 L 371.328125 324.316406 L 319.984375 272.972656 C 290.3125 243.300781 250.972656 226.964844 208.960938 226.964844 C 185.292969 226.964844 162.621094 231.964844 141.28125 242.300781 C 130.28125 247.632812 119.945312 253.96875 110.609375 261.636719 C 109.277344 262.972656 104.609375 266.972656 99.273438 272.304688 C 77.269531 293.976562 65.265625 322.648438 65.265625 353.320312 C 65.265625 357.324219 65.601562 360.992188 65.933594 364.65625 C 65.933594 365.992188 66.269531 367.324219 66.601562 368.324219 C 66.933594 370.660156 67.269531 373.324219 67.601562 375.660156 C 67.933594 376.992188 68.269531 378.660156 68.601562 379.992188 C 69.269531 381.996094 69.601562 384.328125 70.269531 386.328125 C 70.601562 387.996094 71.269531 389.328125 71.933594 390.664062 C 72.601562 392.664062 73.269531 394.664062 73.9375 396.332031 C 74.601562 397.664062 75.269531 399.332031 75.9375 400.664062 C 76.9375 402.332031 77.601562 404.332031 78.601562 406 C 79.269531 407.332031 80.269531 408.667969 80.9375 410.332031 C 81.9375 412 82.9375 413.667969 83.9375 415.335938 C 84.9375 416.667969 85.9375 418 86.9375 419.335938 C 87.9375 421.003906 89.273438 422.335938 90.273438 424.003906 C 91.273438 425.335938 92.273438 426.671875 93.605469 427.671875 C 94.941406 429.003906 96.273438 430.671875 97.605469 432.003906 C 98.605469 433.339844 99.941406 434.339844 101.273438 435.339844 C 102.609375 436.671875 103.941406 438.003906 105.609375 439.339844 C 106.941406 440.339844 108.277344 441.339844 109.609375 442.339844 C 110.941406 443.339844 112.609375 444.671875 114.277344 445.671875 C 115.609375 446.675781 116.945312 447.675781 118.613281 448.339844 C 120.277344 449.339844 121.945312 450.339844 123.613281 451.339844 C 124.945312 452.34375 126.613281 453.007812 128.28125 453.675781 C 129.945312 454.675781 131.613281 455.34375 133.28125 456.007812 C 134.949219 456.675781 136.28125 457.34375 137.949219 458.007812 C 139.617188 458.675781 141.617188 459.34375 143.28125 460.011719 C 144.949219 460.675781 146.617188 461.011719 148.285156 461.675781 C 150.285156 462.34375 151.953125 462.675781 153.953125 463.011719 C 155.617188 463.34375 157.285156 463.675781 159.285156 464.011719 C 161.285156 464.34375 163.285156 464.675781 164.953125 465.011719 C 166.621094 465.34375 168.621094 465.34375 170.289062 465.679688 C 170.953125 465.679688 171.957031 465.679688 172.621094 465.679688 C 162.621094 461.34375 153.285156 455.007812 145.285156 447.007812 C 109.609375 412.667969 109.609375 355.324219 144.949219 319.980469 Z M 144.949219 319.980469 " fill-opacity="1" fill-rule="nonzero"></path></g><g clip-path="url(#914077ee6e)"><path fill="#ff751f" d="M 234.632812 472.347656 C 233.300781 473.011719 231.632812 473.679688 230.300781 474.347656 C 228.964844 475.011719 227.632812 475.347656 226.632812 475.679688 C 225.300781 476.347656 223.632812 477.011719 222.296875 477.347656 C 220.964844 477.679688 219.632812 478.347656 218.296875 478.679688 C 216.964844 479.015625 215.296875 479.679688 213.964844 480.015625 C 212.628906 480.347656 210.964844 480.679688 209.628906 481.015625 C 208.296875 481.347656 206.960938 481.679688 205.628906 482.015625 C 203.960938 482.347656 202.628906 482.679688 200.960938 482.679688 C 199.628906 483.015625 198.292969 483.015625 196.960938 483.347656 C 195.292969 483.679688 193.292969 483.679688 191.625 484.015625 C 190.625 484.015625 189.292969 484.347656 188.292969 484.347656 C 185.292969 484.679688 182.289062 484.679688 179.625 484.679688 C 175.289062 484.679688 171.289062 484.347656 167.289062 484.015625 C 165.953125 484.015625 164.621094 483.679688 163.285156 483.347656 C 160.621094 483.015625 157.617188 482.679688 154.953125 482.015625 C 153.617188 481.679688 151.953125 481.347656 150.617188 481.015625 C 147.949219 480.347656 145.617188 479.679688 142.949219 479.015625 C 141.617188 478.679688 139.949219 478.011719 138.617188 477.679688 C 135.949219 477.011719 133.613281 476.011719 131.28125 475.011719 C 129.945312 474.679688 128.613281 474.011719 127.613281 473.679688 C 124.613281 472.347656 121.277344 470.679688 118.277344 469.34375 C 117.945312 469.011719 117.277344 469.011719 116.945312 468.679688 C 113.609375 466.679688 110.277344 464.675781 106.941406 462.675781 C 105.941406 462.011719 104.941406 461.34375 103.941406 460.675781 C 101.609375 459.011719 99.609375 457.34375 97.273438 455.675781 C 96.273438 454.675781 94.941406 453.675781 93.941406 453.007812 C 91.9375 451.339844 90.273438 449.675781 88.273438 448.007812 C 87.273438 447.007812 86.273438 446.007812 84.9375 445.007812 C 83.269531 443.007812 81.605469 441.339844 79.9375 439.339844 C 78.601562 438.003906 77.601562 437.003906 76.9375 436.003906 C 74.9375 433.671875 73.269531 431.003906 71.269531 428.671875 C 70.933594 428.003906 70.269531 427.335938 69.933594 426.671875 C 67.601562 423.335938 65.601562 420.003906 63.933594 416.667969 C 63.265625 415.667969 62.933594 414.667969 62.601562 413.667969 C 61.265625 411 59.933594 408.667969 58.933594 406 C 58.265625 404.664062 57.933594 403.332031 57.265625 402 C 56.265625 399.664062 55.265625 397.332031 54.597656 394.664062 C 54.265625 393.328125 53.597656 391.664062 53.265625 390.328125 C 52.929688 389.328125 52.597656 388.328125 52.265625 387.328125 C 52.929688 428.003906 69.269531 466.34375 98.273438 495.015625 C 127.945312 524.691406 167.289062 541.027344 209.296875 541.027344 C 251.304688 541.027344 290.644531 524.691406 320.316406 495.015625 L 377.996094 437.671875 L 437.675781 377.992188 L 494.6875 320.316406 C 502.355469 312.648438 511.023438 306.644531 521.023438 301.980469 C 541.363281 289.644531 564.699219 283.308594 588.371094 283.308594 C 591.707031 283.308594 594.707031 283.640625 598.039062 283.640625 C 598.707031 283.640625 599.375 283.640625 600.039062 283.640625 C 602.707031 283.976562 605.375 284.308594 608.042969 284.640625 C 609.375 284.976562 610.710938 284.976562 612.042969 285.308594 C 614.710938 285.640625 617.042969 286.308594 619.710938 286.976562 C 621.042969 287.308594 622.378906 287.640625 623.710938 287.976562 C 626.046875 288.640625 628.710938 289.308594 631.046875 290.308594 C 632.378906 290.644531 633.378906 291.308594 634.714844 291.644531 C 637.046875 292.644531 639.714844 293.308594 642.046875 294.644531 C 642.714844 294.976562 643.714844 295.3125 644.382812 295.644531 C 650.050781 298.3125 655.382812 301.3125 660.71875 304.644531 C 660.71875 304.644531 661.050781 304.644531 661.050781 304.980469 C 663.054688 306.3125 665.054688 307.980469 667.054688 309.3125 C 668.054688 309.980469 669.386719 310.980469 670.386719 311.648438 C 672.386719 312.980469 674.054688 314.648438 675.722656 316.316406 C 676.722656 317.316406 678.054688 318.316406 679.054688 319.316406 C 680.722656 320.980469 682.390625 322.316406 683.722656 323.984375 C 684.722656 324.984375 686.058594 326.316406 687.058594 327.648438 C 688.390625 329.316406 690.058594 330.984375 691.390625 332.652344 C 692.390625 333.984375 693.390625 335.320312 694.390625 336.652344 C 696.394531 339.320312 698.394531 342.320312 700.058594 344.988281 C 701.394531 346.988281 702.726562 348.988281 703.726562 350.988281 C 704.726562 352.65625 705.394531 354.324219 706.394531 355.988281 C 707.394531 357.988281 708.394531 359.65625 709.0625 361.65625 C 709.730469 363.324219 710.394531 364.992188 711.0625 366.992188 C 711.730469 368.992188 712.730469 370.992188 713.394531 372.992188 C 714.0625 374.660156 714.398438 376.328125 715.0625 378.328125 C 715.398438 379.328125 715.730469 379.992188 715.730469 380.996094 C 715.0625 340.320312 698.726562 301.980469 669.722656 273.304688 C 640.046875 243.300781 600.707031 226.964844 558.699219 226.964844 C 516.691406 226.964844 477.347656 243.300781 447.675781 272.972656 L 272.640625 448.007812 C 264.972656 455.675781 255.972656 462.011719 245.96875 466.34375 C 244.96875 467.011719 243.636719 467.679688 242.636719 468.011719 C 241.300781 468.679688 239.636719 469.679688 238.300781 470.34375 C 237.300781 471.011719 235.96875 471.679688 234.632812 472.347656 Z M 234.632812 472.347656 " fill-opacity="1" fill-rule="nonzero"></path></g></svg></svg><style>@media (prefers-color-scheme: light) { :root { filter: none; } }
@media (prefers-color-scheme: dark) { :root { filter: none; } }
</style></svg>